<?xml version="1.0" encoding="utf-8"?>
<!-- Generator: Adobe Illustrator 21.1.0, SVG Export Plug-In . SVG Version: 6.00 Build 0)  -->
<svg version="1.1" id="Layer_1" xmlns="http://www.w3.org/2000/svg" xmlns:xlink="http://www.w3.org/1999/xlink" x="0px" y="0px"
	 viewBox="0 0 300 300" style="enable-background:new 0 0 300 300;" xml:space="preserve">
<style type="text/css">
	.st0{fill:#CAC3BB;}
</style>
<path class="st0" d="M210.3,154.9l-0.6-2.4c-1.4-5.4-3.5-14.1-4.9-19.5c-2.8-11-7.2-28.8-10-39.8c-1.4-5.4-3.5-14.1-4.9-19.5
	c-1.4-5.7-3.2-12.9-4.7-18.6c-1.3-5.4-3.2-14-1.6-18.9c1-2.9,2.6-5.6,4.8-7.8c5.3-5.3,12.8-7,19.5-5.1c5.4,1.5,11.4,2.3,14.8-1.2
	c3.4-3.4,3.1-9.6-1.8-12.3c-14.3-8.1-32.9-6.1-45,6.1c-8.5,8.5-12.4,20.6-10.5,32.5l0.1,0.4l30.2,120.6c0,0,0,0.1,0.1,0.3
	c0,0.1,0.1,0.4,0.2,0.5l0.1,0.2c0.6,1.5,0.9,3,1.1,4.6c0.8,6.2-1.3,12.2-5.7,16.6c-2.1,2.1-4.7,3.7-7.4,4.7
	c-4.6,1.6-13.1-0.1-18.5-1.4l-29.9-7.5c-5.4-1.3-8.7,1.9-7.3,7.2c1.3,5.3,6.8,10.8,12.2,12.1l21.9,5.5c5.4,1.3,9.9,2.5,10,2.5l0.3,0
	c11.6,1.5,23-2.4,31.2-10.7c8.3-8.3,12.1-19.6,10.7-31.2c-0.2-1.4-0.4-2.8-0.8-4.1C213.4,166.4,211.6,160.3,210.3,154.9 M277.9,77.2
	c-3.4,3.4-3.5,8.7-1.9,12.7c1,2.4,1.5,5,1.5,7.6c0,5.3-2.1,10.3-5.8,14.1c-2.1,2.1-4.7,3.7-7.4,4.7c-4.6,1.6-13.1-0.1-18.5-1.4
	l-30-7.5c-5.4-1.3-8.7,1.9-7.3,7.2c1.3,5.3,6.8,10.8,12.2,12.1l21.9,5.5c5.4,1.3,9.9,2.5,10,2.5l0.3,0c11.6,1.5,23-2.4,31.2-10.7
	c7.1-7.1,11-16.5,11-26.5c0-6.6-1.7-13-4.9-18.5C287.5,74.1,281.3,73.7,277.9,77.2 M79.2,173.2l-25-6.2c-1.8-0.6-3.6-1-5.5-1.4
	l-0.4-0.1c-11.9-1.9-24,2-32.5,10.5c-7.1,7.1-11,16.5-11,26.5c0,6.6,1.7,13,4.9,18.5c2.8,4.8,8.9,5.2,12.3,1.7
	c3.4-3.4,3.6-8.7,1.9-12.7c-1-2.4-1.5-5-1.5-7.6c0-5.3,2.1-10.3,5.8-14.1c2.2-2.2,4.9-3.8,7.8-4.8c4.9-1.6,13.5,0.3,18.9,1.6l29,7.3
	c5.4,1.4,8.7-1.9,7.4-7.2C90.1,180,84.6,174.6,79.2,173.2 M132.1,242.6l-26.9-107.5c-1.3-5.4-3.2-14-1.6-18.9c1-2.9,2.6-5.6,4.8-7.8
	c4.5-4.5,11-6.6,17.3-5.6c1.1,0.2,2.3,0.5,3.3,0.8l0.4,0.1l34.8,8.7c5.4,1.3,8.7-1.9,7.3-7.2c-1.3-5.3-6.8-10.8-12.2-12.1l-24.9-6.2
	c-1.9-0.6-3.8-1.1-5.9-1.4c-11.9-1.9-24,2-32.5,10.5c-8.5,8.5-12.4,20.6-10.5,32.5l0.1,0.4l7,27.9c1.3,5.4,3.5,14.1,4.9,19.5
	c2.7,11,7.2,28.8,9.9,39.8c1.3,5.4,3.5,14.1,4.9,19.5c0.8,3.3,1.7,7,2.6,10.3c1.3,5.4,3.1,13.9,1.4,18.5c-1,2.7-2.6,5.3-4.7,7.4
	c-5.3,5.3-12.8,7-19.6,5.1c-5.3-1.5-11.3-2.3-14.8,1.2c-3.4,3.4-3.1,9.6,1.7,12.3c5.7,3.3,12.1,4.9,18.5,4.9c9.6,0,19.2-3.7,26.5-11
	c8.3-8.3,12.1-19.6,10.7-31.2c0,0,0-0.1,0-0.3C134.6,252.5,133.5,248,132.1,242.6 M268.3,98l-67.2-66c-2-1.9-5-3.1-6.5-2.1
	c-0.9,0.6-1.7,1.3-2.5,2c-0.3,0.3-0.7,0.7-0.9,1c-0.5,0.6,0.8,2.7,2.8,4.7l69.3,68c2,2,3.9,3.3,4.3,2.9c0.2-0.2,0.4-0.4,0.6-0.6
	c0.9-0.9,1.7-1.9,2.3-3C271.5,103.2,270.3,99.9,268.3,98 M187.1,180.9l-68.8-67.5c-2-1.9-4.2-3.1-5-2.5c-0.4,0.3-0.9,0.7-1.3,1.1
	c-0.7,0.7-1.3,1.4-1.8,2.2c-0.9,1.3,0.2,4.1,2.2,6.1l68.2,67c2,1.9,4.5,3.1,5.6,2.3c0.6-0.5,1.2-1,1.8-1.5c0.5-0.5,1-1.1,1.5-1.7
	C190.2,185.3,189.1,182.9,187.1,180.9 M106.5,261.9L37.4,194c-2-1.9-4-3.2-4.6-2.8c-0.3,0.3-0.6,0.5-0.9,0.8
	c-0.8,0.8-1.5,1.7-2.1,2.7c-1,1.6,0.2,4.7,2.1,6.6l67.7,66.4c2,1.9,4.8,3,6.1,2.2c0.8-0.5,1.5-1.1,2.2-1.8c0.4-0.4,0.8-0.8,1.2-1.3
	C109.7,266.1,108.5,263.8,106.5,261.9 M68.2,193.8l-3.5-0.9c-2.7-0.7-3.3,0.4-1.3,2.3l41.2,41.2c2,2,3,1.4,2.3-1.3l-0.9-3.5
	c-0.7-2.7-2.8-6.5-4.8-8.4l-24.6-24.6C74.7,196.6,70.9,194.5,68.2,193.8 M192.7,63.6l0.9,3.5c0.7,2.7,2.8,6.5,4.8,8.4l26,26
	c2,2,5.8,4.1,8.4,4.8l3.5,0.9c2.7,0.7,3.3-0.4,1.3-2.3L195,62.3C193,60.3,192,60.9,192.7,63.6 M150.1,114.2l-3.5-0.9
	c-2.7-0.7-3.3,0.4-1.3,2.3l39,39c2,2,3,1.4,2.3-1.3l-0.9-3.5c-0.7-2.7-2.8-6.5-4.8-8.4L158.5,119C156.6,117,152.8,114.9,150.1,114.2
	 M116.3,147.8l35.8,35.8c2,2,1.4,3-1.3,2.3l-3.5-0.9c-2.7-0.7-6.5-2.8-8.4-4.8L119.6,161c-2-2-4.1-5.7-4.8-8.4l-0.9-3.5
	C113.3,146.4,114.3,145.8,116.3,147.8"/>
</svg>
