<?xml version="1.0" encoding="utf-8"?>
<!-- Generator: Adobe Illustrator 21.1.0, SVG Export Plug-In . SVG Version: 6.00 Build 0)  -->
<svg version="1.1" id="Layer_1" xmlns="http://www.w3.org/2000/svg" xmlns:xlink="http://www.w3.org/1999/xlink" x="0px" y="0px"
	 viewBox="0 0 300 300" style="enable-background:new 0 0 300 300;" xml:space="preserve">
<style type="text/css">
	.st0{fill:#CAC3BB;}
</style>
<g>
	<path class="st0" d="M73.3,185.7c0,0,0.5,0.1,1.2,0.2c0.7,0.1,1.7,0.2,2.7,0.4c0.5,0.1,1,0.1,1.5,0.2c0.5,0,0.9,0.1,1.3,0.1
		c0.7,0.1,1.3,0.1,1.3,0.1c0.9,0.1,1.7-0.1,2.4-0.6c0.7-0.4,1.1-1.1,1.3-1.8c0,0,0.3-1.3,0.6-2.5c0.3-1.3,0.6-2.5,0.6-2.5
		c0.3-1.3,0.8-2.4,1.4-3.5c0.6-1.1,1.4-2,2.3-2.8c0.4-0.4,0.9-0.8,1.4-1.1c0.5-0.3,1-0.6,1.5-0.9c1.1-0.5,2.2-0.8,3.4-1l0.1,0l0.1,0
		c0.6-0.1,1.2-0.1,1.8-0.1c0.3,0,0.6,0,0.9,0.1c0.3,0,0.6,0.1,0.9,0.1c0.6,0.1,1.1,0.3,1.7,0.5c0.3,0.1,0.6,0.2,0.8,0.3
		c0.3,0.1,0.5,0.2,0.8,0.4c2.1,1.1,4,2.9,5.2,5.2c0,0,0.6,1.1,1.2,2.3c0.6,1.1,1.2,2.3,1.2,2.3c0.4,0.7,1,1.2,1.7,1.4
		c0.4,0.1,0.8,0.2,1.2,0.2c0.4,0,0.8-0.1,1.3-0.2c0,0,0.5-0.2,1.2-0.4c0.7-0.2,1.7-0.5,2.6-0.9c0.9-0.4,1.9-0.7,2.6-1
		c0.4-0.1,0.6-0.3,0.8-0.4c0.2-0.1,0.3-0.1,0.3-0.1c1.6-0.7,2.6-2.3,2.2-3.8c0,0-0.3-1.3-0.6-2.5c-0.3-1.3-0.6-2.5-0.6-2.5
		c-0.3-1.3-0.4-2.5-0.3-3.8c0-0.6,0.1-1.2,0.3-1.8c0.1-0.6,0.3-1.2,0.5-1.8c0.2-0.6,0.5-1.1,0.7-1.6c0.3-0.5,0.6-1,1-1.5
		c0.4-0.5,0.7-0.9,1.2-1.3c0.4-0.4,0.9-0.8,1.4-1.1l0.1-0.1l0.1,0c2-1.4,4.3-2,6.7-2c2.4,0,4.9,0.7,7,2.2c0,0,1.1,0.7,2.1,1.5
		c1.1,0.7,2.1,1.5,2.1,1.5c0.6,0.4,1.4,0.6,2.2,0.5c0.4-0.1,0.8-0.2,1.2-0.4c0.4-0.2,0.7-0.5,1-0.8c0,0,0.3-0.4,0.9-0.9
		c0.5-0.5,1.2-1.3,1.9-2c0.7-0.8,1.3-1.5,1.8-2.1c0.3-0.3,0.4-0.5,0.6-0.7c0.1-0.2,0.2-0.3,0.2-0.3c1.1-1.4,1.2-3.3,0.2-4.4
		c0,0-0.9-1-1.7-1.9c-0.9-1-1.7-1.9-1.7-1.9c-0.9-1-1.6-2-2.1-3.2c-0.3-0.6-0.4-1.1-0.6-1.7c-0.2-0.6-0.3-1.2-0.4-1.8
		c-0.3-2.4,0.1-4.8,1.2-6.9l0-0.1l0-0.1c0.5-1.1,1.3-2,2.1-2.8c0.4-0.4,0.9-0.8,1.4-1.1c0.2-0.2,0.5-0.3,0.8-0.5
		c0.3-0.2,0.5-0.3,0.8-0.4c2.1-1.1,4.7-1.6,7.2-1.3c0,0,1.3,0.2,2.5,0.3c1.3,0.1,2.6,0.3,2.6,0.3c0.8,0.1,1.5-0.1,2.2-0.6
		c0.3-0.2,0.6-0.5,0.9-0.9c0.2-0.3,0.4-0.7,0.5-1.2c0,0,0.1-0.5,0.3-1.2c0.2-0.7,0.5-1.7,0.7-2.7c0.2-1,0.5-2,0.6-2.7
		c0.1-0.4,0.2-0.7,0.2-0.9c0-0.2,0.1-0.3,0.1-0.3c0.3-1.8-0.5-3.4-1.9-4c0,0-0.3-0.1-0.7-0.3c-0.5-0.2-1.1-0.4-1.7-0.6
		c-1.2-0.4-2.4-0.9-2.4-0.9c-1.2-0.4-2.3-1.1-3.3-1.9c-1-0.8-1.8-1.7-2.5-2.7c-0.7-1-1.2-2.1-1.6-3.2c-0.4-1.1-0.6-2.3-0.6-3.5
		l0-0.1l0-0.1c0-1.2,0.2-2.4,0.6-3.5c0.4-1.1,0.9-2.2,1.6-3.2c0.7-1,1.5-1.9,2.5-2.7c1-0.8,2.1-1.4,3.3-1.9c0,0,1.2-0.4,2.4-0.9
		c0.6-0.2,1.2-0.5,1.7-0.6c0.5-0.2,0.7-0.3,0.7-0.3c1.4-0.6,2.2-2.2,1.9-4c0,0,0-0.1-0.1-0.3c0-0.2-0.1-0.5-0.2-0.9
		c-0.2-0.7-0.4-1.7-0.6-2.7c-0.2-1-0.5-1.9-0.7-2.7c-0.2-0.7-0.3-1.2-0.3-1.2c-0.1-0.4-0.3-0.8-0.5-1.2c-0.2-0.3-0.5-0.6-0.9-0.9
		c-0.6-0.5-1.4-0.7-2.2-0.6c0,0-1.3,0.1-2.6,0.3c-1.3,0.2-2.5,0.3-2.5,0.3c-2.5,0.3-5.1-0.2-7.2-1.3c-0.3-0.1-0.5-0.3-0.8-0.4
		c-0.3-0.2-0.5-0.3-0.8-0.5c-0.5-0.3-0.9-0.7-1.4-1.1c-0.8-0.8-1.6-1.8-2.1-2.8l0-0.1l0-0.1c-1.1-2.1-1.5-4.5-1.2-6.9
		c0.1-0.6,0.2-1.2,0.4-1.8c0.2-0.6,0.4-1.2,0.6-1.7c0.5-1.1,1.2-2.2,2.1-3.2c0,0,0.9-1,1.7-1.9c0.9-1,1.7-1.9,1.7-1.9
		c1-1.2,0.9-3-0.2-4.4c0,0-0.1-0.1-0.2-0.3c-0.1-0.2-0.3-0.4-0.6-0.7c-0.5-0.6-1.2-1.3-1.8-2.1c-0.6-0.8-1.3-1.5-1.9-2
		c-0.5-0.5-0.9-0.9-0.9-0.9c-0.3-0.3-0.6-0.6-1-0.8c-0.4-0.2-0.8-0.3-1.2-0.4c-0.8-0.1-1.6,0-2.2,0.5c0,0-1.1,0.7-2.1,1.5
		c-1.1,0.7-2.1,1.5-2.1,1.5c-2.1,1.5-4.6,2.2-7,2.2c-2.4,0-4.7-0.6-6.7-2l-0.1,0l-0.1,0c-0.5-0.4-1-0.7-1.4-1.1
		c-0.4-0.4-0.8-0.9-1.2-1.3c-0.3-0.5-0.7-1-1-1.5c-0.3-0.5-0.5-1.1-0.7-1.6c-0.2-0.6-0.4-1.2-0.5-1.8c-0.1-0.6-0.2-1.2-0.3-1.8
		c-0.1-1.2,0-2.5,0.3-3.8c0,0,0.3-1.3,0.6-2.5c0.3-1.3,0.6-2.5,0.6-2.5c0.4-1.5-0.6-3.1-2.2-3.9c0,0-0.1-0.1-0.3-0.1
		c-0.2-0.1-0.5-0.2-0.8-0.4c-0.7-0.3-1.6-0.6-2.6-1c-0.9-0.4-1.9-0.7-2.6-0.9c-0.7-0.2-1.2-0.4-1.2-0.4c-0.4-0.1-0.8-0.2-1.3-0.2
		c-0.4,0-0.8,0.1-1.2,0.2c-0.8,0.3-1.4,0.8-1.7,1.4c0,0-0.6,1.1-1.2,2.3c-0.6,1.1-1.2,2.3-1.2,2.3c-1.2,2.3-3.1,4.1-5.2,5.2
		c-0.3,0.1-0.5,0.3-0.8,0.4c-0.3,0.1-0.6,0.2-0.8,0.3c-0.6,0.2-1.1,0.4-1.7,0.5c-0.3,0.1-0.6,0.1-0.9,0.1c-0.3,0-0.6,0-0.9,0.1
		c-0.6,0-1.2,0-1.8-0.1l-0.1,0l-0.1,0c-1.2-0.2-2.3-0.5-3.4-1c-0.5-0.2-1-0.6-1.5-0.9c-0.5-0.3-1-0.7-1.4-1.1
		c-0.9-0.8-1.7-1.8-2.3-2.8c-0.6-1-1.2-2.2-1.4-3.5c0,0-0.3-1.3-0.6-2.5c-0.3-1.3-0.6-2.5-0.6-2.5c-0.2-0.7-0.7-1.4-1.3-1.8
		c-0.7-0.4-1.5-0.6-2.4-0.6c0,0-0.5,0-1.3,0.1c-0.4,0-0.8,0.1-1.3,0.1c-0.5,0.1-1,0.1-1.5,0.2c-1,0.1-2,0.3-2.7,0.4
		c-0.7,0.1-1.2,0.2-1.2,0.2c-0.9,0.2-1.6,0.6-2.2,1.1c-0.3,0.3-0.5,0.6-0.6,1c-0.1,0.4-0.2,0.7-0.2,1.1c0,0,0,1.3,0,2.6
		c0,1.3,0,2.6,0,2.6c0,1.3-0.2,2.6-0.6,3.7c-0.2,0.6-0.4,1.1-0.7,1.7c-0.3,0.6-0.6,1.1-0.9,1.6c-1.4,2-3.2,3.5-5.5,4.4l-0.1,0
		l-0.1,0c-2.3,0.9-4.7,0.9-7,0.3c-1.2-0.3-2.3-0.7-3.4-1.4c-0.5-0.3-1.1-0.7-1.5-1.1c-0.5-0.4-0.9-0.8-1.4-1.3c0,0-0.8-1-1.7-1.9
		c-0.9-1-1.7-1.9-1.7-1.9c-0.5-0.6-1.2-0.9-2-1c-0.4,0-0.8,0-1.2,0.1c-0.4,0.1-0.8,0.3-1.2,0.5c0,0-0.4,0.3-1.1,0.7
		c-0.6,0.4-1.5,0.9-2.3,1.5c-0.8,0.6-1.6,1.2-2.3,1.6c-0.3,0.2-0.6,0.4-0.7,0.5c-0.2,0.1-0.3,0.2-0.3,0.2c-1.4,1.1-1.9,2.9-1.2,4.3
		c0,0,0.6,1.1,1.2,2.3c0.6,1.1,1.2,2.3,1.2,2.3c0.6,1.1,1,2.4,1.2,3.6c0.1,0.6,0.2,1.2,0.2,1.8c0,0.6,0,1.2-0.1,1.8
		c-0.3,2.4-1.2,4.6-2.8,6.4l-0.1,0.1l-0.1,0.1c-0.8,0.9-1.8,1.6-2.7,2.3c-0.5,0.3-1,0.6-1.6,0.8c-0.3,0.1-0.6,0.2-0.8,0.3
		c-0.3,0.1-0.6,0.2-0.9,0.2c-2.3,0.6-4.9,0.5-7.3-0.5c0,0-1.2-0.5-2.4-0.9c-1.2-0.5-2.4-0.9-2.4-0.9c-0.7-0.3-1.5-0.2-2.3,0.1
		c-0.4,0.2-0.7,0.4-1,0.6c-0.3,0.3-0.6,0.6-0.8,1c0,0-0.3,0.4-0.6,1.1c-0.2,0.3-0.4,0.7-0.6,1.1c-0.2,0.4-0.5,0.9-0.7,1.3
		c-0.5,0.9-0.9,1.8-1.3,2.5c-0.2,0.3-0.3,0.6-0.4,0.8c-0.1,0.2-0.1,0.3-0.1,0.3c-0.7,1.6-0.4,3.4,0.9,4.3c0,0,1.1,0.7,2.1,1.5
		c1.1,0.7,2.1,1.5,2.1,1.5c1.1,0.7,2,1.6,2.8,2.6c0.4,0.5,0.7,1,1,1.5c0.3,0.5,0.6,1.1,0.8,1.6c0.2,0.6,0.4,1.1,0.5,1.7
		c0.1,0.3,0.1,0.6,0.2,0.9c0,0.3,0.1,0.6,0.1,0.9c0.1,0.6,0.1,1.2,0,1.8c-0.1,0.6-0.2,1.2-0.3,1.8l0,0.2c-0.1,0.6-0.3,1.2-0.6,1.7
		c-0.1,0.3-0.3,0.5-0.4,0.8c-0.1,0.3-0.3,0.5-0.4,0.8c-0.6,1-1.4,1.9-2.3,2.7c-1.8,1.6-4.1,2.7-6.7,3c0,0-1.3,0.1-2.5,0.3
		c-1.3,0.2-2.6,0.3-2.6,0.3c-0.8,0.1-1.4,0.5-2,1.1c-0.3,0.3-0.5,0.7-0.6,1c-0.2,0.4-0.3,0.8-0.3,1.3c0,0-0.1,2-0.1,4
		c0,2,0.1,4,0.1,4c0,0.4,0.1,0.9,0.3,1.3c0.2,0.4,0.4,0.7,0.6,1c0.5,0.6,1.2,1,2,1.1c0,0,1.3,0.2,2.6,0.3c1.3,0.1,2.5,0.3,2.5,0.3
		c2.6,0.3,4.9,1.4,6.7,3c0.9,0.8,1.7,1.7,2.3,2.7c0.2,0.3,0.3,0.5,0.4,0.8c0.1,0.3,0.3,0.5,0.4,0.8c0.2,0.5,0.4,1.1,0.6,1.7l0,0.2
		c0.1,0.6,0.2,1.2,0.3,1.8c0.1,0.6,0.1,1.2,0,1.8c0,0.3-0.1,0.6-0.1,0.9c0,0.3-0.1,0.6-0.2,0.9c-0.1,0.6-0.3,1.1-0.5,1.7
		c-0.2,0.6-0.5,1.1-0.8,1.6c-0.3,0.5-0.6,1-1,1.5c-0.8,1-1.7,1.9-2.8,2.6c0,0-1.1,0.7-2.1,1.5c-1.1,0.7-2.1,1.5-2.1,1.5
		c-1.3,0.9-1.6,2.7-0.9,4.3c0,0,0.1,0.1,0.1,0.3c0.1,0.2,0.2,0.5,0.4,0.8c0.3,0.7,0.8,1.6,1.3,2.5c0.2,0.4,0.5,0.9,0.7,1.3
		c0.2,0.4,0.5,0.8,0.6,1.1c0.4,0.7,0.6,1.1,0.6,1.1c0.2,0.4,0.5,0.7,0.8,1c0.3,0.3,0.7,0.5,1,0.6c0.7,0.3,1.5,0.3,2.3,0.1
		c0,0,1.2-0.5,2.4-0.9c1.2-0.5,2.4-0.9,2.4-0.9c2.4-0.9,5-1,7.3-0.5c0.3,0.1,0.6,0.2,0.9,0.2c0.3,0.1,0.6,0.2,0.8,0.3
		c0.6,0.2,1.1,0.5,1.6,0.8c1,0.6,2,1.3,2.7,2.3l0.1,0.1l0.1,0.1c1.6,1.8,2.5,4,2.8,6.4c0.1,0.6,0.1,1.2,0.1,1.8
		c0,0.6-0.1,1.2-0.2,1.8c-0.2,1.2-0.6,2.4-1.2,3.6c0,0-0.6,1.1-1.2,2.3c-0.6,1.1-1.2,2.3-1.2,2.3c-0.7,1.4-0.2,3.2,1.2,4.3
		c0,0,0.1,0.1,0.3,0.2c0.2,0.1,0.4,0.3,0.7,0.5c0.6,0.4,1.4,1,2.3,1.6c0.8,0.6,1.7,1.1,2.3,1.5c0.6,0.4,1.1,0.7,1.1,0.7
		c0.4,0.2,0.8,0.4,1.2,0.5c0.4,0.1,0.8,0.1,1.2,0.1c0.8-0.1,1.5-0.4,2-1c0,0,0.9-1,1.7-1.9c0.8-1,1.7-1.9,1.7-1.9
		c0.4-0.5,0.9-0.9,1.4-1.3c0.5-0.4,1-0.8,1.5-1.1c1.1-0.6,2.2-1.1,3.4-1.4c2.3-0.6,4.7-0.5,7,0.3l0.2,0.1c2.3,0.8,4.1,2.4,5.5,4.4
		c0.3,0.5,0.6,1,0.9,1.6c0.3,0.5,0.5,1.1,0.7,1.7c0.4,1.2,0.6,2.4,0.6,3.7c0,0,0,1.3,0,2.6c0,1.3,0,2.6,0,2.6c0,0.4,0.1,0.8,0.2,1.1
		c0.1,0.3,0.4,0.7,0.6,1C71.6,185.1,72.4,185.6,73.3,185.7z M70.5,146.6c-0.1,0-0.2-0.1-0.3-0.1c-0.2-0.1-0.3-0.1-0.3-0.1
		s-0.4-0.1-1-0.4c-0.3-0.1-0.7-0.3-1.1-0.5c-0.4-0.2-0.9-0.4-1.4-0.6c-0.5-0.2-1.1-0.5-1.7-0.8c-0.3-0.1-0.6-0.3-0.9-0.5
		c-0.3-0.2-0.6-0.3-0.9-0.5c-0.6-0.4-1.3-0.7-1.9-1.1c-0.3-0.2-0.6-0.4-1-0.6l-0.5-0.3l-0.5-0.3c-2.5-1.7-4.9-3.7-6.5-5.3
		c-0.2-0.2-0.4-0.4-0.6-0.6c-0.2-0.2-0.4-0.4-0.5-0.5c-0.3-0.3-0.6-0.6-0.8-0.9c-0.1-0.1-0.2-0.2-0.3-0.3c-0.1-0.1-0.2-0.2-0.2-0.3
		c-0.1-0.1-0.2-0.2-0.2-0.2s-0.3-0.3-0.7-0.8c-0.5-0.5-1-1.3-1.7-2.2c-1.4-1.8-3.1-4.4-4.5-7.1c-1.4-2.7-2.6-5.5-3.3-7.7
		c-0.1-0.3-0.2-0.5-0.3-0.8c-0.1-0.3-0.1-0.5-0.2-0.7c-0.1-0.4-0.2-0.8-0.3-1.2c-0.1-0.3-0.2-0.6-0.2-0.7c0-0.2-0.1-0.3-0.1-0.3
		s-0.1-0.4-0.2-1c0-0.2-0.1-0.3-0.1-0.5c0-0.2-0.1-0.4-0.1-0.6c-0.1-0.5-0.2-1-0.3-1.5c0-0.3-0.1-0.6-0.1-0.9c0-0.3-0.1-0.6-0.1-1
		c-0.1-0.7-0.2-1.3-0.2-2.1c0-0.4-0.1-0.7-0.1-1.1c0-0.4-0.1-0.7-0.1-1.1c0-0.8,0-1.5-0.1-2.3c0-0.8,0-1.5,0.1-2.3
		c0-0.4,0-0.7,0.1-1.1c0-0.4,0.1-0.7,0.1-1.1c0-0.7,0.2-1.4,0.2-2.1c0-0.3,0.1-0.6,0.1-1c0-0.3,0.1-0.6,0.1-0.9
		c0.1-0.6,0.2-1.1,0.3-1.5c0-0.2,0.1-0.4,0.1-0.6c0-0.2,0.1-0.4,0.1-0.5c0.1-0.6,0.2-1,0.2-1s0-0.1,0.1-0.3c0-0.2,0.1-0.4,0.2-0.7
		c0.1-0.3,0.2-0.7,0.3-1.2c0.1-0.2,0.1-0.5,0.2-0.7c0.1-0.2,0.2-0.5,0.3-0.8c0.7-2.2,1.8-5,3.3-7.7c1.4-2.7,3.1-5.3,4.5-7.1
		c0.7-0.9,1.3-1.7,1.7-2.2c0.4-0.5,0.7-0.8,0.7-0.8s0.1-0.1,0.2-0.2c0.1-0.1,0.1-0.2,0.2-0.3c0.1-0.1,0.2-0.2,0.3-0.3
		c0.2-0.2,0.5-0.5,0.8-0.9c0.2-0.2,0.3-0.3,0.5-0.5c0.2-0.2,0.4-0.4,0.6-0.6c1.6-1.6,4-3.6,6.5-5.3l0.5-0.3l0.5-0.3
		c0.3-0.2,0.6-0.4,1-0.6c0.6-0.4,1.3-0.8,1.9-1.1c0.3-0.2,0.6-0.4,0.9-0.5c0.3-0.2,0.6-0.3,0.9-0.5c0.6-0.3,1.1-0.6,1.7-0.8
		c0.5-0.2,1-0.5,1.4-0.6c0.4-0.2,0.8-0.3,1.1-0.5c0.6-0.2,1-0.4,1-0.4s0.1,0,0.3-0.1c0.1,0,0.2-0.1,0.3-0.1c0.1,0,0.3-0.1,0.4-0.1
		c0.3-0.1,0.7-0.2,1.1-0.4c0.2-0.1,0.5-0.2,0.7-0.2c0.2-0.1,0.5-0.1,0.8-0.2c2.2-0.7,5.2-1.3,8.2-1.7c3-0.4,6.1-0.4,8.4-0.3
		c0.3,0,0.6,0,0.8,0c0.3,0,0.5,0,0.7,0.1c0.5,0,0.9,0.1,1.2,0.1c0.3,0,0.6,0.1,0.8,0.1c0.2,0,0.3,0,0.3,0s0.4,0,1,0.1
		c0.2,0,0.4,0,0.5,0.1c0.2,0,0.4,0.1,0.6,0.1c0.5,0.1,1,0.2,1.5,0.3c0.3,0,0.6,0.1,0.9,0.2c0.3,0.1,0.6,0.1,0.9,0.2
		c0.3,0.1,0.6,0.2,1,0.2c0.3,0.1,0.7,0.2,1,0.3c0.7,0.2,1.4,0.4,2.1,0.6c0.4,0.1,0.7,0.2,1.1,0.4l0.5,0.2l0.5,0.2
		c0.4,0.1,0.7,0.3,1.1,0.4c0.4,0.1,0.7,0.3,1,0.4c0.7,0.3,1.4,0.6,2,0.9c0.6,0.3,1.3,0.6,1.8,0.9c0.6,0.3,1.1,0.6,1.6,0.9
		c0.2,0.1,0.5,0.3,0.7,0.4c0.2,0.1,0.4,0.3,0.6,0.4c0.4,0.3,0.7,0.5,1,0.6c0.3,0.2,0.5,0.3,0.6,0.4c0.1,0.1,0.2,0.2,0.2,0.2
		s0.3,0.2,0.9,0.6c0.3,0.2,0.6,0.4,1,0.7c0.4,0.3,0.8,0.6,1.2,1c1.8,1.4,4.1,3.5,6.1,5.8c2,2.3,3.8,4.8,5,6.7
		c0.2,0.2,0.3,0.5,0.4,0.7c0.1,0.2,0.3,0.4,0.4,0.6c0.2,0.4,0.4,0.8,0.6,1c0.2,0.3,0.3,0.5,0.4,0.7c0.1,0.2,0.1,0.2,0.1,0.2
		s0.2,0.3,0.5,0.9c0.3,0.6,0.7,1.5,1.2,2.5c0.1,0.1,0.1,0.3,0.2,0.4c0.1,0.1,0.1,0.3,0.2,0.4c0.1,0.3,0.2,0.6,0.4,0.9
		c0.1,0.3,0.2,0.6,0.4,0.9c0.1,0.3,0.2,0.7,0.3,1c0.2,0.7,0.5,1.4,0.7,2.1c0.1,0.4,0.2,0.7,0.3,1.1l0.2,0.5L137,87
		c0.1,0.4,0.2,0.7,0.3,1.1c0.1,0.4,0.2,0.7,0.2,1.1c0.1,0.7,0.3,1.5,0.4,2.2c0.1,0.7,0.2,1.4,0.3,2c0,0.2,0,0.3,0.1,0.5
		c0,0.2,0,0.3,0,0.5c0,0.3,0,0.6,0.1,0.9c0,0.3,0,0.6,0.1,0.8c0,0.1,0,0.3,0,0.4c0,0.1,0,0.2,0,0.4c0,0.5,0,0.9,0,1.2
		c0,0.7,0,1.1,0,1.1s0,0.4,0,1.1c0,0.3,0,0.7,0,1.2c0,0.1,0,0.2,0,0.4c0,0.1,0,0.2,0,0.4c0,0.3,0,0.5-0.1,0.8c0,0.3,0,0.6-0.1,0.9
		c0,0.2,0,0.3,0,0.5c0,0.2,0,0.3-0.1,0.5c-0.1,0.7-0.2,1.3-0.3,2c-0.1,0.7-0.3,1.4-0.4,2.2c-0.1,0.4-0.2,0.7-0.2,1.1
		c-0.1,0.4-0.2,0.7-0.3,1.1l-0.1,0.6l-0.2,0.5c-0.1,0.4-0.2,0.7-0.3,1.1c-0.2,0.7-0.4,1.4-0.7,2.1c-0.1,0.3-0.2,0.7-0.3,1
		c-0.1,0.3-0.3,0.6-0.4,0.9c-0.1,0.3-0.2,0.6-0.4,0.9c-0.1,0.1-0.1,0.3-0.2,0.4c-0.1,0.1-0.1,0.3-0.2,0.4c-0.5,1-0.8,1.9-1.2,2.5
		c-0.3,0.6-0.5,0.9-0.5,0.9s0,0.1-0.1,0.2c-0.1,0.2-0.2,0.4-0.4,0.7c-0.2,0.3-0.4,0.6-0.6,1c-0.1,0.2-0.2,0.4-0.4,0.6
		c-0.1,0.2-0.3,0.5-0.4,0.7c-1.2,2-3,4.4-5,6.7c-2,2.3-4.3,4.4-6.1,5.8c-0.5,0.4-0.9,0.7-1.2,1c-0.4,0.3-0.7,0.5-1,0.7
		c-0.5,0.4-0.9,0.6-0.9,0.6s-0.1,0.1-0.2,0.2c-0.1,0.1-0.4,0.3-0.6,0.4c-0.3,0.2-0.6,0.4-1,0.7c-0.2,0.1-0.4,0.3-0.6,0.4
		c-0.2,0.1-0.5,0.3-0.7,0.4c-0.5,0.3-1,0.6-1.6,0.9c-0.6,0.3-1.2,0.6-1.8,0.9c-0.6,0.3-1.3,0.6-2,0.9c-0.3,0.2-0.7,0.3-1,0.4
		c-0.4,0.1-0.7,0.3-1.1,0.4l-0.5,0.2l-0.5,0.2c-0.4,0.1-0.7,0.2-1.1,0.4c-0.7,0.3-1.4,0.4-2.1,0.6c-0.3,0.1-0.7,0.2-1,0.3
		c-0.3,0.1-0.7,0.2-1,0.2c-0.3,0.1-0.6,0.1-0.9,0.2c-0.3,0.1-0.6,0.1-0.9,0.2c-0.6,0.1-1.1,0.2-1.5,0.3c-0.2,0-0.4,0.1-0.6,0.1
		c-0.2,0-0.4,0-0.5,0.1c-0.7,0.1-1,0.1-1,0.1s-0.1,0-0.3,0c-0.2,0-0.4,0.1-0.8,0.1c-0.3,0-0.7,0.1-1.2,0.1c-0.2,0-0.5,0-0.7,0.1
		c-0.3,0-0.5,0-0.8,0c-2.3,0.1-5.4,0-8.4-0.3c-3-0.4-6-1-8.2-1.7c-0.3-0.1-0.5-0.1-0.8-0.2c-0.2-0.1-0.5-0.2-0.7-0.2
		c-0.4-0.1-0.8-0.3-1.1-0.4C70.7,146.7,70.6,146.7,70.5,146.6z"/>
	<path class="st0" d="M182.9,233.9c0,0-1.2-0.4-2.5-0.7c-1.3-0.3-2.5-0.6-2.5-0.6c-1.3-0.3-2.4-0.8-3.5-1.4c-1.1-0.6-2-1.4-2.8-2.2
		c-1.7-1.7-2.8-3.6-3.2-5.9l0-0.1l0-0.1c-0.5-2.2-0.2-4.5,0.7-6.7c0.4-1.1,1-2.2,1.7-3.2c0.7-1,1.6-1.9,2.6-2.7c0,0,1-0.8,2.1-1.6
		c1-0.8,2-1.6,2-1.6c0.6-0.5,1-1.2,1.1-2c0.1-0.8-0.1-1.7-0.6-2.6c0,0-0.3-0.5-0.7-1.2c-0.2-0.4-0.5-0.7-0.7-1.2
		c-0.3-0.4-0.6-0.9-0.9-1.3c-0.6-0.9-1.2-1.7-1.7-2.4c-0.2-0.3-0.5-0.6-0.6-0.8c-0.1-0.2-0.2-0.3-0.2-0.3c-0.6-0.7-1.3-1.3-2.2-1.5
		c-0.8-0.2-1.6-0.1-2.3,0.2c0,0-1.1,0.6-2.2,1.3c-1.1,0.7-2.2,1.3-2.2,1.3c-1.1,0.7-2.3,1.1-3.5,1.4c-1.2,0.3-2.4,0.5-3.6,0.4
		c-2.4,0-4.5-0.6-6.4-1.9l-0.1,0l-0.1,0c-1.9-1.3-3.3-3-4.3-5.2c-0.5-1.1-0.8-2.3-1-3.5c-0.2-1.2-0.2-2.5,0-3.8c0,0,0.2-1.3,0.4-2.6
		c0.2-1.3,0.3-2.6,0.3-2.6c0.1-0.8-0.2-1.5-0.7-2.2c-0.5-0.7-1.3-1.2-2.2-1.4c0,0-0.1,0-0.4-0.1c-0.2-0.1-0.5-0.2-0.9-0.2
		c-0.8-0.2-1.8-0.4-2.9-0.6c-0.5-0.1-1.1-0.2-1.6-0.3c-0.5-0.1-1-0.2-1.4-0.2c-0.8-0.1-1.3-0.2-1.3-0.2c-0.9-0.1-1.8,0.1-2.6,0.5
		c-0.7,0.4-1.2,1-1.4,1.8c0,0-0.4,1.2-0.7,2.5c-0.3,1.3-0.6,2.5-0.6,2.5c-0.3,1.3-0.8,2.4-1.5,3.5c-0.6,1.1-1.4,2-2.2,2.8
		c-1.7,1.7-3.6,2.8-5.9,3.2l-0.1,0l-0.1,0c-2.2,0.5-4.5,0.2-6.7-0.7c-1.1-0.4-2.2-1-3.2-1.7c-1-0.7-1.9-1.6-2.7-2.6
		c0,0-0.8-1-1.6-2.1c-0.8-1-1.6-2-1.6-2c-0.5-0.6-1.2-1-2-1.1c-0.8-0.1-1.7,0.1-2.6,0.5c0,0-0.5,0.3-1.2,0.7
		c-0.4,0.2-0.7,0.5-1.2,0.7c-0.4,0.3-0.9,0.6-1.3,0.9c-0.9,0.6-1.7,1.2-2.4,1.7c-0.3,0.2-0.6,0.5-0.8,0.6c-0.2,0.1-0.3,0.2-0.3,0.2
		c-0.7,0.6-1.3,1.3-1.5,2.2c-0.2,0.8-0.1,1.6,0.2,2.3c0,0,0.6,1.1,1.3,2.2c0.7,1.1,1.3,2.2,1.3,2.2c0.7,1.1,1.2,2.3,1.4,3.5
		c0.3,1.2,0.5,2.4,0.4,3.6c0,2.4-0.6,4.5-1.9,6.4l0,0.1l0,0.1c-1.3,1.9-3,3.3-5.2,4.2c-1.1,0.5-2.3,0.8-3.5,1
		c-1.2,0.2-2.5,0.2-3.8,0c0,0-1.3-0.2-2.6-0.4c-1.3-0.2-2.6-0.3-2.6-0.3c-0.8-0.1-1.5,0.2-2.2,0.7c-0.7,0.5-1.2,1.3-1.4,2.2
		c0,0,0,0.1-0.1,0.4c-0.1,0.2-0.2,0.5-0.2,0.9c-0.2,0.8-0.4,1.8-0.6,2.9c-0.1,0.5-0.2,1.1-0.3,1.6c-0.1,0.5-0.2,1-0.2,1.4
		c-0.1,0.8-0.2,1.3-0.2,1.3c-0.1,0.9,0.1,1.8,0.5,2.6c0.4,0.7,1,1.2,1.8,1.4c0,0,1.3,0.4,2.5,0.7c1.3,0.3,2.5,0.6,2.5,0.6
		c1.3,0.3,2.4,0.8,3.5,1.4c1.1,0.6,2,1.4,2.8,2.2c1.7,1.7,2.8,3.6,3.2,5.9l0,0.1l0,0.1c0.5,2.2,0.2,4.5-0.7,6.7
		c-0.4,1.1-1,2.2-1.7,3.2c-0.7,1-1.6,1.9-2.6,2.7c0,0-1,0.8-2.1,1.6c-1,0.8-2,1.6-2,1.6c-0.6,0.5-1,1.2-1.1,2
		c-0.1,0.8,0.1,1.7,0.5,2.6c0,0,0.3,0.5,0.7,1.2c0.2,0.4,0.5,0.7,0.7,1.2c0.3,0.4,0.6,0.9,0.9,1.3c0.6,0.9,1.2,1.7,1.7,2.4
		c0.2,0.3,0.5,0.6,0.6,0.8c0.1,0.2,0.2,0.3,0.2,0.3c0.6,0.7,1.3,1.3,2.2,1.5c0.8,0.2,1.6,0.1,2.3-0.2c0,0,1.1-0.6,2.2-1.3
		c1.1-0.6,2.2-1.3,2.2-1.3c1.1-0.7,2.3-1.2,3.5-1.4c1.2-0.3,2.4-0.5,3.6-0.4c2.4,0,4.5,0.6,6.4,1.9l0.1,0l0.1,0
		c1.9,1.3,3.3,3,4.2,5.2c0.5,1.1,0.8,2.3,1,3.5c0.2,1.2,0.2,2.5,0,3.8c0,0-0.2,1.3-0.4,2.6c-0.2,1.3-0.3,2.6-0.3,2.6
		c-0.1,0.8,0.2,1.5,0.7,2.2c0.5,0.7,1.3,1.2,2.2,1.4c0,0,0.1,0,0.4,0.1c0.2,0.1,0.5,0.2,0.9,0.2c0.8,0.2,1.8,0.4,2.9,0.6
		c0.5,0.1,1.1,0.2,1.6,0.3c0.5,0.1,1,0.2,1.4,0.2c0.8,0.1,1.3,0.2,1.3,0.2c0.9,0.1,1.8-0.1,2.6-0.5c0.7-0.4,1.2-1,1.4-1.8
		c0,0,0.4-1.3,0.7-2.5c0.3-1.3,0.6-2.5,0.6-2.5c0.3-1.3,0.8-2.4,1.4-3.5c0.6-1.1,1.4-2,2.2-2.8c1.7-1.7,3.6-2.8,5.9-3.2l0.1,0l0.1,0
		c2.2-0.5,4.5-0.2,6.7,0.7c1.1,0.4,2.2,1,3.2,1.7c1,0.7,1.9,1.6,2.7,2.6c0,0,0.8,1,1.6,2.1c0.8,1,1.6,2,1.6,2c0.5,0.6,1.2,1,2,1.1
		c0.8,0.1,1.7-0.1,2.6-0.5c0,0,0.5-0.3,1.2-0.7c0.4-0.2,0.7-0.5,1.2-0.7c0.4-0.3,0.9-0.6,1.3-0.9c0.9-0.6,1.7-1.2,2.4-1.7
		c0.3-0.2,0.6-0.5,0.8-0.6c0.2-0.1,0.3-0.2,0.3-0.2c0.7-0.6,1.3-1.3,1.5-2.2c0.2-0.8,0.1-1.6-0.2-2.3c0,0-0.6-1.1-1.3-2.2
		c-0.7-1.1-1.3-2.2-1.3-2.2c-0.7-1.1-1.2-2.3-1.4-3.5c-0.3-1.2-0.5-2.4-0.4-3.6c0-2.4,0.6-4.5,1.9-6.4l0-0.1l0-0.1
		c1.3-1.9,3-3.3,5.2-4.2c1.1-0.5,2.3-0.8,3.5-1c1.2-0.2,2.5-0.2,3.8,0c0,0,1.3,0.2,2.6,0.4c1.3,0.2,2.6,0.3,2.6,0.3
		c0.8,0.1,1.5-0.2,2.2-0.7c0.7-0.5,1.2-1.3,1.4-2.2c0,0,0-0.1,0.1-0.4c0.1-0.2,0.2-0.5,0.2-0.9c0.2-0.8,0.4-1.8,0.6-2.9
		c0.1-0.5,0.2-1.1,0.3-1.6c0.1-0.5,0.2-1,0.2-1.4c0.1-0.8,0.2-1.3,0.2-1.3c0.1-0.9-0.1-1.8-0.5-2.6
		C184.3,234.7,183.7,234.2,182.9,233.9z M154.4,232.5c-0.1,1.2-0.2,2.5-0.5,3.8c-0.3,1.3-0.6,2.5-1,3.7c-0.4,1.1-0.8,2.2-1.3,3.1
		c-0.1,0.2-0.2,0.4-0.3,0.6c-0.1,0.2-0.2,0.4-0.3,0.5c-0.1,0.2-0.2,0.3-0.3,0.5c-0.1,0.1-0.2,0.3-0.2,0.4c-0.3,0.5-0.5,0.8-0.5,0.8
		s-0.2,0.3-0.5,0.7c-0.1,0.1-0.2,0.3-0.3,0.4c-0.1,0.1-0.2,0.3-0.3,0.4c-0.1,0.2-0.2,0.3-0.4,0.5c-0.1,0.2-0.3,0.3-0.5,0.5
		c-0.6,0.7-1.4,1.6-2.3,2.4c-0.9,0.8-1.9,1.6-3,2.4c-1.1,0.7-2.2,1.4-3.3,1.9c-0.6,0.2-1.1,0.5-1.6,0.7c-0.3,0.1-0.5,0.2-0.8,0.3
		c-0.3,0.1-0.5,0.2-0.7,0.2c-0.5,0.2-0.9,0.3-1.3,0.4c-0.2,0.1-0.4,0.1-0.5,0.2c-0.2,0-0.3,0.1-0.5,0.1c-0.6,0.1-0.9,0.2-0.9,0.2
		s-0.3,0.1-0.9,0.2c-0.1,0-0.3,0.1-0.5,0.1c-0.2,0-0.4,0-0.6,0.1c-0.4,0-0.8,0.1-1.3,0.1c-0.2,0-0.5,0-0.8,0.1c-0.3,0-0.5,0-0.8,0
		c-0.6,0-1.1,0-1.7,0c-1.2-0.1-2.5-0.2-3.8-0.5c-1.3-0.3-2.5-0.6-3.7-1c-1.1-0.4-2.2-0.8-3.1-1.3c-0.2-0.1-0.4-0.2-0.6-0.3
		c-0.2-0.1-0.4-0.2-0.6-0.3c-0.2-0.1-0.3-0.2-0.5-0.3c-0.2-0.1-0.3-0.2-0.4-0.2c-0.5-0.3-0.8-0.5-0.8-0.5s-0.3-0.2-0.7-0.5
		c-0.1-0.1-0.3-0.2-0.4-0.3c-0.1-0.1-0.3-0.2-0.4-0.3c-0.2-0.1-0.3-0.2-0.5-0.4c-0.2-0.1-0.3-0.3-0.5-0.5c-0.7-0.6-1.6-1.4-2.4-2.3
		c-0.8-0.9-1.6-1.9-2.4-3c-0.7-1.1-1.4-2.2-1.9-3.3c-0.2-0.6-0.5-1.1-0.7-1.6c-0.1-0.3-0.2-0.5-0.3-0.8c-0.1-0.3-0.2-0.5-0.2-0.7
		c-0.2-0.5-0.3-0.9-0.4-1.3c-0.1-0.2-0.1-0.4-0.2-0.5c0-0.2-0.1-0.3-0.1-0.5c-0.1-0.6-0.2-0.9-0.2-0.9s-0.1-0.3-0.2-0.9
		c0-0.1-0.1-0.3-0.1-0.5c0-0.2,0-0.4-0.1-0.6c0-0.4-0.1-0.8-0.1-1.3c0-0.2,0-0.5-0.1-0.8c0-0.3,0-0.5,0-0.8c0-0.6,0-1.1,0-1.7
		c0.1-1.2,0.2-2.5,0.5-3.8c0.3-1.3,0.6-2.5,1-3.7c0.4-1.1,0.8-2.2,1.3-3.1c0.1-0.2,0.2-0.4,0.3-0.6c0.1-0.2,0.2-0.4,0.3-0.5
		c0.1-0.2,0.2-0.3,0.3-0.5c0.1-0.1,0.2-0.3,0.2-0.4c0.3-0.5,0.5-0.8,0.5-0.8s0.2-0.3,0.5-0.7c0.1-0.1,0.2-0.3,0.3-0.4
		c0.1-0.1,0.2-0.3,0.3-0.4c0.1-0.2,0.2-0.3,0.4-0.5c0.1-0.2,0.3-0.3,0.5-0.5c0.6-0.8,1.4-1.6,2.3-2.4c0.9-0.8,1.9-1.6,3-2.3
		c1.1-0.7,2.2-1.4,3.3-1.9c0.6-0.2,1.1-0.5,1.6-0.7c0.3-0.1,0.5-0.2,0.8-0.3c0.3-0.1,0.5-0.2,0.7-0.2c0.5-0.2,0.9-0.3,1.3-0.4
		c0.2-0.1,0.4-0.1,0.5-0.2c0.2,0,0.3-0.1,0.5-0.1c0.6-0.1,0.9-0.2,0.9-0.2s0.3-0.1,0.9-0.2c0.1,0,0.3-0.1,0.5-0.1
		c0.2,0,0.4,0,0.6-0.1c0.4,0,0.8-0.1,1.3-0.1c0.2,0,0.5,0,0.8-0.1c0.3,0,0.5,0,0.8,0c0.6,0,1.1,0,1.7,0c1.2,0.1,2.5,0.2,3.8,0.5
		c1.3,0.3,2.5,0.6,3.7,1c1.1,0.4,2.2,0.8,3.1,1.3c0.2,0.1,0.4,0.2,0.6,0.3c0.2,0.1,0.4,0.2,0.5,0.3c0.2,0.1,0.3,0.2,0.5,0.3
		c0.1,0.1,0.3,0.2,0.4,0.2c0.5,0.3,0.8,0.5,0.8,0.5s0.3,0.2,0.7,0.5c0.1,0.1,0.3,0.2,0.4,0.3c0.1,0.1,0.3,0.2,0.4,0.3
		c0.2,0.1,0.3,0.2,0.5,0.4c0.2,0.1,0.3,0.3,0.5,0.5c0.8,0.6,1.6,1.4,2.4,2.3c0.8,0.9,1.6,1.9,2.4,3c0.7,1.1,1.4,2.2,1.9,3.3
		c0.2,0.6,0.5,1.1,0.7,1.6c0.1,0.3,0.2,0.5,0.3,0.8c0.1,0.2,0.2,0.5,0.2,0.7c0.2,0.5,0.3,0.9,0.4,1.3c0.1,0.2,0.1,0.4,0.2,0.5
		c0,0.2,0.1,0.3,0.1,0.5c0.1,0.6,0.2,0.9,0.2,0.9s0.1,0.3,0.2,0.9c0,0.1,0.1,0.3,0.1,0.5c0,0.2,0,0.4,0.1,0.6
		c0.1,0.4,0.1,0.8,0.1,1.3c0,0.2,0,0.5,0.1,0.8c0,0.3,0,0.5,0,0.8C154.4,231.3,154.4,231.9,154.4,232.5z"/>
	<path class="st0" d="M298.2,174.4c0,0-1.2-0.5-2.4-1.1c-1.2-0.5-2.4-1-2.4-1c-1.2-0.5-2.3-1.2-3.2-2c-0.5-0.4-0.9-0.9-1.3-1.3
		c-0.4-0.5-0.8-1-1.1-1.5c-1.3-2.1-2.1-4.4-2-6.9l0-0.1l0-0.1c0-2.5,0.7-4.8,2-6.9c0.3-0.5,0.7-1,1.1-1.5c0.4-0.5,0.9-0.9,1.3-1.3
		c0.9-0.8,2-1.5,3.2-2c0,0,1.2-0.5,2.4-1c1.2-0.5,2.4-1.1,2.4-1.1c0.7-0.3,1.2-0.9,1.5-1.7c0.3-0.8,0.4-1.7,0.1-2.6
		c0,0-0.1-0.5-0.4-1.3c-0.1-0.4-0.2-0.8-0.4-1.3c-0.1-0.2-0.1-0.5-0.2-0.8c-0.1-0.3-0.2-0.5-0.3-0.8c-0.4-1-0.7-2.1-1-2.8
		c-0.3-0.8-0.5-1.3-0.5-1.3c-0.7-1.8-2.4-2.8-3.9-2.5c0,0-1.3,0.2-2.5,0.5c-1.3,0.3-2.5,0.6-2.5,0.6c-1.3,0.3-2.6,0.4-3.8,0.2
		c-0.6-0.1-1.2-0.2-1.8-0.3c-0.3-0.1-0.6-0.2-0.9-0.3c-0.3-0.1-0.6-0.2-0.9-0.3c-1.2-0.4-2.2-1.1-3.2-1.8c-0.5-0.4-0.9-0.8-1.4-1.2
		c-0.4-0.4-0.8-0.9-1.2-1.4l-0.1-0.1l-0.1-0.1c-0.3-0.5-0.7-1-1-1.6c-0.3-0.5-0.5-1.1-0.7-1.7c-0.2-0.6-0.4-1.1-0.5-1.7
		s-0.2-1.2-0.2-1.8c-0.1-1.2,0-2.5,0.3-3.7c0.3-1.2,0.7-2.4,1.4-3.5c0,0,0.7-1.1,1.3-2.2c0.6-1.1,1.3-2.3,1.3-2.3
		c0.4-0.7,0.5-1.5,0.2-2.3c-0.2-0.8-0.7-1.6-1.4-2.2c0,0-0.4-0.3-1.1-0.8c-0.6-0.5-1.5-1.2-2.4-1.8c-0.9-0.6-1.8-1.3-2.4-1.7
		c-0.7-0.4-1.1-0.7-1.1-0.7c-1.6-1.1-3.6-0.9-4.6,0.2c0,0-0.9,0.9-1.7,1.9c-0.9,1-1.7,1.9-1.7,1.9c-0.9,1-1.9,1.8-3,2.4
		c-1.1,0.6-2.2,1.1-3.4,1.4c-1.2,0.3-2.4,0.4-3.6,0.4c-0.6,0-1.2-0.1-1.8-0.2c-0.6-0.1-1.2-0.2-1.8-0.4l-0.1,0l-0.1,0
		c-0.6-0.2-1.2-0.4-1.7-0.7c-0.5-0.3-1.1-0.6-1.6-0.9c-0.5-0.3-1-0.7-1.4-1.1c-0.4-0.4-0.9-0.9-1.3-1.3c-0.8-0.9-1.4-2-2-3.2
		c-0.5-1.1-0.9-2.4-1-3.7c0,0-0.1-1.3-0.3-2.6c-0.1-1.3-0.3-2.6-0.3-2.6c-0.1-0.8-0.5-1.5-1.2-2c-0.6-0.5-1.5-0.9-2.5-0.9
		c0,0-0.5-0.1-1.4-0.1c-0.8,0-1.9,0-3-0.1c-1.1,0-2.2,0.1-3,0.1c-0.8,0-1.4,0.1-1.4,0.1c-1,0.1-1.8,0.4-2.5,0.9
		c-0.6,0.5-1.1,1.2-1.2,2c0,0-0.2,1.3-0.3,2.6c-0.1,1.3-0.3,2.6-0.3,2.6c-0.1,1.3-0.5,2.5-1,3.7c-0.5,1.2-1.2,2.2-1.9,3.2
		c-0.4,0.5-0.8,0.9-1.3,1.3c-0.4,0.4-0.9,0.8-1.4,1.1c-0.5,0.3-1,0.7-1.6,0.9c-0.5,0.3-1.1,0.5-1.7,0.7l-0.1,0l-0.1,0
		c-0.6,0.2-1.2,0.3-1.8,0.4c-0.6,0.1-1.2,0.2-1.8,0.2c-1.2,0-2.4-0.1-3.6-0.4c-1.2-0.3-2.3-0.8-3.4-1.4c-1.1-0.6-2.1-1.4-3-2.4
		c0,0-0.8-1-1.7-1.9c-0.9-1-1.7-1.9-1.7-1.9c-1-1.1-3-1.3-4.6-0.2c0,0-0.5,0.3-1.1,0.7c-0.7,0.4-1.6,1.1-2.4,1.7
		c-0.9,0.6-1.7,1.3-2.4,1.8c-0.6,0.5-1.1,0.8-1.1,0.8c-0.7,0.6-1.2,1.4-1.4,2.2c-0.2,0.8-0.2,1.6,0.2,2.3c0,0,0.6,1.1,1.3,2.3
		c0.6,1.1,1.3,2.2,1.3,2.2c0.7,1.1,1.1,2.3,1.4,3.5c0.3,1.2,0.4,2.5,0.3,3.7c-0.1,0.6-0.1,1.2-0.2,1.8c-0.1,0.6-0.3,1.2-0.5,1.7
		c-0.2,0.6-0.4,1.1-0.7,1.7c-0.3,0.5-0.6,1-1,1.6l-0.1,0.1l0,0.1c-0.4,0.5-0.8,1-1.2,1.4c-0.4,0.4-0.9,0.8-1.3,1.2
		c-1,0.7-2,1.3-3.2,1.8c-0.3,0.1-0.6,0.2-0.9,0.3c-0.3,0.1-0.6,0.2-0.9,0.3c-0.6,0.2-1.2,0.3-1.8,0.3c-1.2,0.1-2.6,0.1-3.8-0.2
		c0,0-1.3-0.3-2.5-0.6c-1.3-0.3-2.5-0.5-2.5-0.5c-1.5-0.3-3.2,0.7-3.9,2.5c0,0-0.2,0.5-0.5,1.3c-0.3,0.8-0.6,1.8-1,2.8
		c-0.1,0.3-0.2,0.5-0.3,0.8c-0.1,0.3-0.1,0.5-0.2,0.8c-0.1,0.5-0.3,0.9-0.4,1.3c-0.2,0.8-0.4,1.3-0.4,1.3c-0.2,0.9-0.2,1.9,0.1,2.6
		c0.3,0.8,0.8,1.4,1.5,1.7c0,0,1.2,0.5,2.4,1.1c1.2,0.5,2.4,1,2.4,1c1.2,0.5,2.3,1.2,3.2,2c0.5,0.4,0.9,0.9,1.3,1.3
		c0.4,0.5,0.8,1,1.1,1.5c1.3,2.1,2.1,4.4,2,6.9v0.2c0,2.5-0.7,4.8-2,6.9c-0.3,0.5-0.7,1-1.1,1.5c-0.4,0.5-0.9,0.9-1.3,1.3
		c-0.9,0.8-2,1.5-3.2,2c0,0-1.2,0.5-2.4,1c-1.2,0.5-2.4,1.1-2.4,1.1c-0.7,0.3-1.2,0.9-1.5,1.7c-0.3,0.8-0.4,1.7-0.1,2.6
		c0,0,0.1,0.5,0.4,1.3c0.1,0.4,0.2,0.8,0.4,1.3c0.1,0.2,0.1,0.5,0.2,0.8c0.1,0.3,0.2,0.5,0.3,0.8c0.4,1,0.7,2.1,1,2.8
		c0.3,0.8,0.5,1.3,0.5,1.3c0.7,1.8,2.4,2.8,3.9,2.5c0,0,1.3-0.2,2.5-0.5c1.3-0.3,2.5-0.6,2.5-0.6c1.3-0.3,2.6-0.4,3.8-0.2
		c0.6,0.1,1.2,0.2,1.8,0.3c0.3,0.1,0.6,0.2,0.9,0.3c0.3,0.1,0.6,0.2,0.9,0.3c1.2,0.4,2.2,1.1,3.2,1.8c0.5,0.4,0.9,0.8,1.3,1.2
		c0.4,0.4,0.8,0.9,1.2,1.4l0,0.1l0.1,0.1c0.3,0.5,0.7,1,1,1.6c0.3,0.5,0.5,1.1,0.7,1.7c0.2,0.6,0.4,1.1,0.5,1.7
		c0.1,0.6,0.2,1.2,0.2,1.8c0.1,1.2,0,2.5-0.3,3.7c-0.3,1.2-0.7,2.4-1.4,3.5c0,0-0.7,1.1-1.3,2.2c-0.6,1.1-1.3,2.3-1.3,2.3
		c-0.4,0.7-0.5,1.5-0.2,2.3c0.2,0.8,0.7,1.6,1.4,2.2c0,0,0.4,0.3,1.1,0.8c0.6,0.5,1.5,1.2,2.4,1.8c0.9,0.6,1.8,1.3,2.4,1.7
		c0.7,0.4,1.1,0.7,1.1,0.7c1.6,1.1,3.6,0.9,4.6-0.2c0,0,0.9-0.9,1.7-1.9c0.9-1,1.7-1.9,1.7-1.9c0.9-1,1.9-1.8,3-2.4
		c1.1-0.6,2.2-1.1,3.4-1.4c1.2-0.3,2.4-0.4,3.6-0.4c0.6,0,1.2,0.1,1.8,0.2c0.6,0.1,1.2,0.2,1.8,0.4l0.1,0l0.1,0
		c0.6,0.2,1.2,0.4,1.7,0.7c0.5,0.3,1.1,0.6,1.6,0.9c0.5,0.3,1,0.7,1.4,1.1c0.4,0.4,0.9,0.9,1.3,1.3c0.8,0.9,1.4,2,1.9,3.2
		c0.5,1.1,0.9,2.4,1,3.7c0,0,0.1,1.3,0.3,2.6c0.1,1.3,0.3,2.6,0.3,2.6c0.1,0.8,0.5,1.5,1.2,2c0.6,0.5,1.5,0.9,2.5,0.9
		c0,0,0.5,0.1,1.4,0.1c0.8,0,1.9,0,3,0.1c1.1,0,2.2-0.1,3-0.1c0.8,0,1.4-0.1,1.4-0.1c1-0.1,1.8-0.4,2.5-0.9c0.6-0.5,1.1-1.2,1.2-2
		c0,0,0.2-1.3,0.3-2.6c0.1-1.3,0.3-2.6,0.3-2.6c0.1-1.3,0.5-2.5,1-3.7c0.5-1.2,1.2-2.2,2-3.2c0.4-0.5,0.8-0.9,1.3-1.3
		c0.4-0.4,0.9-0.8,1.4-1.1c0.5-0.3,1-0.7,1.6-0.9c0.5-0.3,1.1-0.5,1.7-0.7l0.1,0l0.1,0c0.6-0.2,1.2-0.3,1.8-0.4
		c0.6-0.1,1.2-0.2,1.8-0.2c1.2,0,2.4,0.1,3.6,0.4c1.2,0.3,2.3,0.8,3.4,1.4c1.1,0.6,2.1,1.4,3,2.4c0,0,0.8,1,1.7,1.9
		c0.9,1,1.7,1.9,1.7,1.9c1,1.1,3,1.3,4.6,0.2c0,0,0.5-0.3,1.1-0.7c0.7-0.4,1.6-1.1,2.4-1.7c0.9-0.6,1.7-1.3,2.4-1.8
		c0.6-0.5,1.1-0.8,1.1-0.8c0.7-0.6,1.2-1.4,1.4-2.2c0.2-0.8,0.2-1.6-0.2-2.3c0,0-0.6-1.1-1.3-2.3c-0.6-1.1-1.3-2.2-1.3-2.2
		c-0.7-1.1-1.1-2.3-1.4-3.5c-0.3-1.2-0.4-2.5-0.3-3.7c0-0.6,0.1-1.2,0.2-1.8c0.1-0.6,0.3-1.2,0.5-1.7c0.2-0.6,0.4-1.1,0.7-1.7
		c0.3-0.5,0.6-1,1-1.6l0.1-0.1l0.1-0.1c0.4-0.5,0.8-1,1.2-1.4c0.4-0.4,0.9-0.8,1.4-1.2c1-0.7,2-1.3,3.2-1.8c0.3-0.1,0.6-0.2,0.9-0.3
		c0.3-0.1,0.6-0.2,0.9-0.3c0.6-0.2,1.2-0.3,1.8-0.3c1.2-0.1,2.6-0.1,3.8,0.2c0,0,1.3,0.3,2.5,0.6c1.3,0.3,2.5,0.5,2.5,0.5
		c1.5,0.3,3.2-0.7,3.9-2.5c0,0,0.2-0.5,0.5-1.3c0.3-0.8,0.6-1.8,1-2.8c0.1-0.3,0.2-0.5,0.3-0.8c0.1-0.3,0.1-0.5,0.2-0.8
		c0.1-0.5,0.3-0.9,0.4-1.3c0.2-0.8,0.4-1.3,0.4-1.3c0.2-0.9,0.2-1.9-0.1-2.6C299.4,175.3,298.9,174.7,298.2,174.4z M268,161.5
		c0,0.2,0,0.3,0,0.5c0,0.2,0,0.4,0,0.6c0,0.5-0.1,1-0.1,1.5c-0.1,0.6-0.2,1.2-0.2,1.8c0,0.3-0.1,0.6-0.2,1c-0.1,0.3-0.1,0.7-0.2,1
		c-0.1,0.4-0.2,0.7-0.2,1.1c-0.1,0.4-0.2,0.7-0.3,1.1c-0.1,0.4-0.2,0.7-0.3,1.1l-0.2,0.5c0,0.2-0.1,0.4-0.2,0.5
		c-0.9,2.9-2.2,5.6-3.4,7.6c-0.3,0.5-0.6,0.9-0.8,1.3c-0.3,0.4-0.5,0.7-0.7,1c-0.4,0.5-0.6,0.8-0.6,0.8s-0.1,0.1-0.2,0.2
		c-0.1,0.1-0.3,0.4-0.5,0.6c-0.2,0.3-0.5,0.6-0.7,0.9c-0.3,0.4-0.6,0.7-1,1.2c-1.5,1.7-3.7,3.8-6.2,5.6c-2.5,1.8-5.1,3.2-7.2,4.1
		c-0.5,0.3-1,0.4-1.4,0.6c-0.4,0.2-0.8,0.3-1.1,0.4c-0.6,0.2-1,0.3-1,0.3s-0.1,0-0.3,0.1c-0.2,0.1-0.4,0.1-0.7,0.2
		c-0.3,0.1-0.7,0.2-1.1,0.3c-0.4,0.1-1,0.2-1.5,0.4c-2.2,0.5-5.2,0.9-8.3,0.9c-3,0-6.1-0.4-8.3-0.9c-0.6-0.1-1.1-0.2-1.5-0.4
		c-0.4-0.1-0.8-0.2-1.1-0.3c-0.3-0.1-0.6-0.2-0.7-0.2c-0.2-0.1-0.3-0.1-0.3-0.1s-0.4-0.1-1-0.3c-0.3-0.1-0.7-0.3-1.1-0.4
		c-0.4-0.2-0.9-0.3-1.4-0.6c-2.1-0.9-4.8-2.3-7.2-4.1c-2.5-1.8-4.7-3.9-6.2-5.6c-0.4-0.4-0.7-0.8-1-1.2c-0.3-0.4-0.5-0.7-0.7-0.9
		c-0.2-0.3-0.4-0.5-0.5-0.6c-0.1-0.1-0.2-0.2-0.2-0.2s-0.2-0.3-0.6-0.8c-0.2-0.3-0.4-0.6-0.7-1c-0.2-0.4-0.5-0.8-0.8-1.3
		c-1.2-1.9-2.5-4.7-3.4-7.6c-0.1-0.2-0.1-0.4-0.2-0.5l-0.2-0.5c-0.1-0.4-0.2-0.7-0.3-1.1c-0.1-0.4-0.2-0.7-0.3-1.1
		c-0.1-0.4-0.2-0.7-0.2-1.1c-0.1-0.3-0.1-0.7-0.2-1c-0.1-0.3-0.1-0.7-0.2-1c-0.1-0.6-0.2-1.3-0.2-1.8c0-0.6-0.1-1.1-0.1-1.5
		c0-0.2,0-0.4,0-0.6c0-0.2,0-0.4,0-0.5c0-0.7,0-1,0-1s0-0.4,0-1c0-0.2,0-0.4,0-0.6c0-0.2,0-0.4,0-0.6c0-0.5,0.1-1,0.1-1.5
		c0.1-0.6,0.1-1.2,0.2-1.8c0-0.3,0.1-0.6,0.2-1c0.1-0.3,0.1-0.7,0.2-1c0.1-0.3,0.2-0.7,0.2-1.1c0.1-0.4,0.2-0.7,0.3-1.1
		c0.1-0.4,0.2-0.7,0.3-1.1l0.2-0.5c0-0.2,0.1-0.4,0.2-0.5c0.9-2.9,2.2-5.6,3.4-7.6c0.3-0.5,0.6-0.9,0.8-1.3c0.3-0.4,0.5-0.7,0.7-1
		c0.4-0.5,0.6-0.8,0.6-0.8s0.1-0.1,0.2-0.2c0.1-0.1,0.3-0.4,0.5-0.6c0.2-0.3,0.5-0.6,0.7-0.9c0.3-0.4,0.6-0.7,1-1.2
		c1.5-1.7,3.7-3.8,6.2-5.6c2.4-1.8,5.1-3.2,7.2-4.1c0.5-0.3,1-0.4,1.4-0.6c0.4-0.2,0.8-0.3,1.1-0.4c0.6-0.2,1-0.3,1-0.3
		s0.1,0,0.3-0.1c0.2-0.1,0.4-0.1,0.7-0.2c0.3-0.1,0.7-0.2,1.1-0.3c0.4-0.1,1-0.2,1.5-0.4c2.2-0.5,5.2-0.9,8.3-0.9
		c3,0,6.1,0.4,8.3,0.9c0.6,0.1,1.1,0.2,1.5,0.4c0.4,0.1,0.8,0.2,1.1,0.3c0.3,0.1,0.6,0.2,0.7,0.2c0.2,0.1,0.3,0.1,0.3,0.1
		s0.4,0.1,1,0.3c0.3,0.1,0.7,0.3,1.1,0.4c0.4,0.2,0.9,0.3,1.4,0.6c2.1,0.9,4.8,2.3,7.2,4.1c2.5,1.8,4.7,3.9,6.2,5.6
		c0.4,0.4,0.7,0.8,1,1.2c0.3,0.4,0.5,0.7,0.7,0.9c0.2,0.3,0.4,0.5,0.5,0.6c0.1,0.1,0.2,0.2,0.2,0.2s0.2,0.3,0.6,0.8
		c0.2,0.3,0.4,0.6,0.7,1c0.2,0.4,0.5,0.8,0.8,1.3c1.2,1.9,2.5,4.7,3.4,7.6c0.1,0.2,0.1,0.4,0.2,0.5l0.2,0.5c0.1,0.4,0.2,0.7,0.3,1.1
		c0.1,0.4,0.2,0.7,0.3,1.1c0.1,0.4,0.2,0.7,0.2,1.1c0.1,0.4,0.1,0.7,0.2,1c0.1,0.3,0.1,0.7,0.2,1c0.1,0.6,0.2,1.3,0.2,1.8
		c0,0.6,0.1,1.1,0.1,1.5c0,0.2,0,0.4,0,0.6c0,0.2,0,0.4,0,0.6c0,0.7,0,1,0,1S268,160.8,268,161.5z"/>
</g>
</svg>
