<?xml version="1.0" encoding="utf-8"?>
<!-- Generator: Adobe Illustrator 21.1.0, SVG Export Plug-In . SVG Version: 6.00 Build 0)  -->
<svg version="1.1" id="Layer_1" xmlns="http://www.w3.org/2000/svg" xmlns:xlink="http://www.w3.org/1999/xlink" x="0px" y="0px"
	 viewBox="0 0 300 300" style="enable-background:new 0 0 300 300;" xml:space="preserve">
<style type="text/css">
	.st0{fill:#CAC3BB;}
</style>
<g>
	<path class="st0" d="M103.3,237.6c0,4.5-0.6,8.8-1.9,12.9c-0.5,1.6-1.1,3.3-1.8,4.8c-1,2.4-2.3,4.7-3.7,6.9
		c-3.2,4.9-7.4,9.1-12.3,12.4c-4,2.7-8.4,4.8-13.2,6.1c-3.8,1.1-7.8,1.6-11.9,1.6c-11.9,0-23.2-4.6-31.6-13.1
		c-8.5-8.5-13.1-19.7-13.1-31.6v-87.8h89.5V237.6z M86.2,53.2c0-1,0.2-2,0.8-2.8c0.9-1.8,2.8-3,5-3c0.2,0,0.3,0,0.5,0.1
		c2.9,0.2,5.3,2.7,5.3,5.7v71.4c0,3.3-2.7,5.8-5.8,5.8c-3.2,0-5.8-2.5-5.8-5.8V53.2z M110.3,40.3c-2.8-6.6-6.8-12.6-12.1-17.8
		C87.6,11.9,73.6,6.1,58.5,6.1C27.4,6.1,2.2,31.3,2.2,62.3v175.3c0,15,5.9,29.2,16.4,39.8c10.7,10.6,24.8,16.5,39.8,16.5
		c9.5,0,18.5-2.4,26.4-6.5c4.7-2.5,9.1-5.7,12.9-9.4c6.7-6.5,11.8-14.6,14.6-23.7c1.6-5.2,2.5-10.8,2.5-16.6V62.3
		C114.8,54.7,113.3,47.2,110.3,40.3"/>
	<path class="st0" d="M97.7,169v71.4c0,3.2-2.6,5.8-5.8,5.8h-0.1c-0.2,0-0.4,0-0.7,0c-1.7-0.2-3.2-1.2-4.1-2.5l-0.1,0
		c-0.3-0.5-0.5-1-0.6-1.5c-0.2-0.5-0.3-1.1-0.3-1.7V169c0-1,0.2-1.9,0.7-2.7v-0.1c1-1.8,2.9-3,5.1-3c0.1,0,0.3,0,0.4,0
		c2,0.1,3.7,1.3,4.6,2.9C97.4,167,97.7,167.9,97.7,169"/>
	<path class="st0" d="M197.9,216.8c0,0.1,0,0.1,0,0.2l0.1-0.1L197.9,216.8z M273.5,146.7c-1.3-1.8-3.4-2.6-5.4-2.2
		c1.9,0.9,3.8,1.7,5.7,2.7C273.7,147,273.6,146.9,273.5,146.7"/>
	<path class="st0" d="M272.3,154.8L215,197.4c-2.7,2-6.2,1.3-8.1-1.2c-1.9-2.6-1.5-6.1,1.2-8.1l57.3-42.6c0.8-0.6,1.7-1,2.7-1
		c2-0.3,4.1,0.5,5.4,2.2c0.1,0.1,0.2,0.3,0.3,0.5C275.3,149.7,274.7,153.1,272.3,154.8 M286.6,95.2c-18.6-25-53.8-30.1-78.7-11.6
		l-82.1,61v14.4l18.8-14l53.3,71.7l0.1,0.1l-0.1,0.1l-70.4,52.3c-3.6,2.7-7.4,4.7-11.5,6.1c-0.8,0.3-1.6,0.5-2.4,0.8
		c-3.5,5.1-7.8,9.6-12.5,13.5c6.2,0,12.4-1.1,18.4-3.2c5.2-1.8,10.2-4.5,14.8-7.9L275.1,174c6.2-4.6,11.2-10.3,15-16.8
		c3.6-6.2,6-12.9,7.1-20.3C299.4,122,295.6,107.3,286.6,95.2"/>
	<path class="st0" d="M179.3,223.9L122,266.5c-1,0.7-2.1,1.1-3.2,1.1c1.6-3.2,3-6.6,4.1-10.1c0.8-2.4,1.4-4.9,1.8-7.4l47.8-35.5
		c0.8-0.6,1.7-0.9,2.6-1.1l0,0c2-0.3,4.1,0.5,5.5,2.3C182.4,218.3,181.9,222,179.3,223.9"/>
</g>
</svg>
