<?xml version="1.0" encoding="utf-8"?>
<!-- Generator: Adobe Illustrator 21.1.0, SVG Export Plug-In . SVG Version: 6.00 Build 0)  -->
<svg version="1.1" id="Layer_1" xmlns="http://www.w3.org/2000/svg" xmlns:xlink="http://www.w3.org/1999/xlink" x="0px" y="0px"
	 viewBox="0 0 500 76" style="enable-background:new 0 0 500 76;" xml:space="preserve">
<style type="text/css">
	.st0{fill:#9E958D;}
	.st1{fill:#CC6600;}
</style>
<g>
	<path class="st0" d="M160.7,55h2.2l-3.6,13.2h-1.8l-2.6-9.8h-0.1l-2.7,9.8h-1.8L146.8,55h2.2l2.3,10.1h0.1l2.5-10.1h1.9l2.5,10.1
		h0.1L160.7,55z M173,62.4v1.2h-6.7v0.5c0,1.5,0.9,2.6,2.5,2.6c1.2,0,1.9-0.5,2.1-1.2h2c-0.1,1.2-1.4,2.9-4,2.9
		c-2.8,0-4.4-1.7-4.4-4.6v-1.4c0-2.9,1.8-4.6,4.3-4.6C171.2,57.8,173,59.6,173,62.4z M171.1,62.1c0-1.6-0.9-2.6-2.4-2.6
		s-2.4,1-2.4,2.6v0.1h4.7V62.1z M176,68.2h2V54.3h-2V68.2z M181.7,68.2h2V54.3h-2V68.2z M192.3,57.8c-2.1,0-2.8,1.2-3.1,2h-0.1V58
		h-1.9v10.2h2v-5.7c0-1.7,0.9-2.9,2.5-2.9c1.3,0,2.1,0.7,2.1,2.3v6.3h2v-6.9C195.7,59,194.4,57.8,192.3,57.8z M207.3,62.4v1.2h-6.7
		v0.5c0,1.5,0.9,2.6,2.5,2.6c1.2,0,1.9-0.5,2.1-1.2h2c-0.1,1.2-1.4,2.9-4,2.9c-2.8,0-4.4-1.7-4.4-4.6v-1.4c0-2.9,1.8-4.6,4.3-4.6
		C205.6,57.8,207.3,59.6,207.3,62.4z M205.4,62.1c0-1.6-0.9-2.6-2.4-2.6c-1.4,0-2.4,1-2.4,2.6v0.1h4.7V62.1z M214.3,62.3
		c-1.1-0.2-2.6-0.3-2.6-1.5c0-0.9,0.8-1.4,1.9-1.4c1.3,0,1.9,0.7,2,1.4h1.8c0-1.8-1.5-2.9-3.7-2.9c-2,0-3.9,0.9-3.9,3.1
		c0,2,1.5,2.5,3.4,2.9c1.4,0.3,2.6,0.4,2.6,1.5c0,0.8-0.6,1.5-2.1,1.5c-1.4,0-2-0.5-2.1-1.4h-1.9c0,1.8,1.6,2.9,3.9,2.9
		c2.5,0,4.1-1.2,4.1-3.2C217.7,63.2,216.2,62.6,214.3,62.3z M224.7,62.3c-1.1-0.2-2.6-0.3-2.6-1.5c0-0.9,0.8-1.4,1.9-1.4
		c1.3,0,1.9,0.7,2,1.4h1.8c0-1.8-1.5-2.9-3.7-2.9c-2,0-3.9,0.9-3.9,3.1c0,2,1.5,2.5,3.4,2.9c1.4,0.3,2.6,0.4,2.6,1.5
		c0,0.8-0.6,1.5-2.1,1.5c-1.4,0-2-0.5-2.1-1.4H220c0,1.8,1.6,2.9,3.9,2.9c2.5,0,4.1-1.2,4.1-3.2C228.1,63.2,226.6,62.6,224.7,62.3z
		 M236.6,57v1h-1.7v1.7h1.7v8.5h2v-8.5h2.3V58h-2.3v-0.9c0-1.1,0.5-1.4,1.7-1.4c0.3,0,0.8,0,0.9,0v-1.6c-0.2,0-0.7-0.1-1.2-0.1
		C237.5,54.2,236.6,55,236.6,57z M251.8,62.4v1.3c0,2.9-1.9,4.6-4.5,4.6c-2.6,0-4.5-1.7-4.5-4.6v-1.3c0-2.8,1.9-4.6,4.5-4.6
		C249.9,57.8,251.8,59.5,251.8,62.4z M249.8,62.5c0-1.7-0.9-3-2.5-3c-1.6,0-2.5,1.3-2.5,3v1.1c0,1.7,0.9,3,2.5,3
		c1.6,0,2.5-1.3,2.5-3V62.5z M257,59.6L257,59.6l-0.1-1.6h-2v10.2h2v-6.1c0-1.4,0.9-2.4,2.6-2.4c0.3,0,0.7,0,0.9,0.1v-1.9
		c-0.2,0-0.4-0.1-0.7-0.1C258,57.8,257.3,58.9,257,59.6z M277.3,64.5c0,2.4-1.9,3.7-4.6,3.7h-5V55h5.1c2.2,0,3.7,1.2,3.7,3.2
		c0,1.6-0.9,2.6-2.2,2.9v0.1C276.2,61.5,277.3,62.6,277.3,64.5z M269.7,60.6h1.9c2,0,3-0.6,3-2c0-1.3-0.9-1.9-2.1-1.9h-2.8V60.6z
		 M275.2,64.4c0-1.5-1.1-2.2-2.6-2.2h-2.9v4.3h2.2C273.8,66.5,275.2,66.1,275.2,64.4z M286.6,64.3c0,1.3-1.1,2.3-2.5,2.3
		c-1.2,0-2.1-0.5-2.1-2.1V58h-2v7c0,2.4,1.4,3.4,3.5,3.4c1.8,0,2.7-1,3-1.9h0.1v1.7h1.9V58h-2V64.3z M296.1,62.3
		c-1.1-0.2-2.6-0.3-2.6-1.5c0-0.9,0.8-1.4,1.9-1.4c1.3,0,1.9,0.7,2,1.4h1.8c0-1.8-1.5-2.9-3.7-2.9c-2,0-3.9,0.9-3.9,3.1
		c0,2,1.5,2.5,3.4,2.9c1.4,0.3,2.6,0.4,2.6,1.5c0,0.8-0.6,1.5-2.1,1.5c-1.4,0-2-0.5-2.1-1.4h-1.9c0,1.8,1.6,2.9,3.9,2.9
		c2.5,0,4.1-1.2,4.1-3.2C299.5,63.2,298,62.6,296.1,62.3z M303.6,53.6c-0.8,0-1.3,0.5-1.3,1.3c0,0.7,0.6,1.3,1.3,1.3
		c0.8,0,1.4-0.5,1.4-1.3C305,54.2,304.4,53.6,303.6,53.6z M302.7,68.2h2V58h-2V68.2z M313.5,57.8c-2.1,0-2.8,1.2-3.1,2h-0.1V58h-1.9
		v10.2h2v-5.7c0-1.7,0.9-2.9,2.5-2.9c1.3,0,2.1,0.7,2.1,2.3v6.3h2v-6.9C316.9,59,315.5,57.8,313.5,57.8z M328.5,62.4v1.2h-6.7v0.5
		c0,1.5,0.9,2.6,2.5,2.6c1.2,0,1.9-0.5,2.1-1.2h2c-0.1,1.2-1.4,2.9-4,2.9c-2.8,0-4.4-1.7-4.4-4.6v-1.4c0-2.9,1.8-4.6,4.3-4.6
		C326.7,57.8,328.5,59.6,328.5,62.4z M326.6,62.1c0-1.6-0.9-2.6-2.4-2.6c-1.4,0-2.4,1-2.4,2.6v0.1h4.7V62.1z M335.5,62.3
		c-1.1-0.2-2.6-0.3-2.6-1.5c0-0.9,0.8-1.4,1.9-1.4c1.3,0,1.9,0.7,2,1.4h1.8c0-1.8-1.5-2.9-3.7-2.9c-2,0-3.9,0.9-3.9,3.1
		c0,2,1.5,2.5,3.4,2.9c1.4,0.3,2.6,0.4,2.6,1.5c0,0.8-0.6,1.5-2.1,1.5c-1.4,0-2-0.5-2.1-1.4h-1.9c0,1.8,1.6,2.9,3.9,2.9
		c2.5,0,4.1-1.2,4.1-3.2C338.9,63.2,337.4,62.6,335.5,62.3z M345.8,62.3c-1.1-0.2-2.6-0.3-2.6-1.5c0-0.9,0.8-1.4,1.9-1.4
		c1.3,0,1.9,0.7,2,1.4h1.8c0-1.8-1.5-2.9-3.7-2.9c-2,0-3.9,0.9-3.9,3.1c0,2,1.5,2.5,3.4,2.9c1.4,0.3,2.6,0.4,2.6,1.5
		c0,0.8-0.6,1.5-2.1,1.5c-1.4,0-2-0.5-2.1-1.4h-1.9c0,1.8,1.6,2.9,3.9,2.9c2.5,0,4.1-1.2,4.1-3.2C349.3,63.2,347.7,62.6,345.8,62.3z
		 M354.6,58.1l0.6,1.1h-0.7l-0.5-1h-0.5v1H353v-2.7h1.3c0.5,0,0.9,0.4,0.9,0.8C355.1,57.7,354.9,58,354.6,58.1z M354.5,57.3
		c0-0.3-0.2-0.4-0.5-0.4h-0.5v0.8h0.4C354.2,57.7,354.5,57.6,354.5,57.3z M356.7,57.6V58c0,1.5-1.2,2.7-2.8,2.7
		c-1.6,0-2.8-1.1-2.8-2.7v-0.4c0-1.4,1.2-2.6,2.8-2.6C355.5,55,356.7,56.2,356.7,57.6z M356.2,57.6c0-1.1-0.9-2-2.2-2
		c-1.3,0-2.2,0.9-2.2,2V58c0,1.2,0.9,2.1,2.2,2.1c1.3,0,2.2-0.9,2.2-2.1V57.6z"/>
	<polygon class="st1" points="492,64 360.7,64 360.7,61.6 489.6,61.6 489.6,4.3 11.4,4.3 11.4,61.6 140.3,61.6 140.3,64 9,64 9,1.9 
		492,1.9 	"/>
	<path class="st1" d="M174.4,30.4v0.4h-2.2v-0.4c0-1.3-1-2.8-2.8-2.8c-2,0-3.1,1.6-3.1,4.4v2c0,1.9,0.6,4.3,3.2,4.3
		c1.9,0,2.8-1.3,2.8-2.5v-0.4h2.2v0.4c0,2.3-1.8,4.7-5,4.7c-3.3,0-5.3-2.4-5.3-6.4V32c0-4,2-6.5,5.3-6.5
		C172.6,25.5,174.4,28,174.4,30.4z M149.5,31.6l-3.1-5.8h-2.5l4.5,8.1v6.3h2.2v-6.3l4.5-8.1h-2.5L149.5,31.6z M189,32v2.1
		c0,3.9-2.1,6.4-5.5,6.4c-3.3,0-5.4-2.4-5.4-6.4V32c0-4,2.1-6.5,5.4-6.5C186.9,25.5,189,28,189,32z M186.8,32c0-2.7-1.2-4.4-3.2-4.4
		c-2,0-3.2,1.7-3.2,4.4v2.1c0,2.7,1.2,4.2,3.2,4.2c2.1,0,3.2-1.5,3.2-4.2V32z M199.5,36.2l-4.1-10.4h-2v14.4h2.1v-8.9l3.2,7.8h1.8
		l3.2-7.9v8.9h2.1V25.8h-2L199.5,36.2z M139.1,34.2l2.7,6h-2.5l-2.4-5.5h-2.7v5.5h-2.2V25.8h4.9c3.3,0,4.4,2.4,4.4,4.4
		C141.4,32.6,140,33.7,139.1,34.2z M139.2,30.3c0-1.5-0.8-2.3-2.3-2.3h-2.5v4.6h2.4C138.4,32.5,139.2,31.8,139.2,30.3z M55.7,34.5
		h3.4v1c0,1.6-1.2,2.7-3,2.7c-2.7,0-3.2-2.8-3.2-4.4V32c0-2.8,1.2-4.3,3.2-4.3c1.6,0,2.7,1,2.9,2.7l0,0.3h2.2l0-0.4
		c-0.2-2.4-1.8-4.8-5-4.8c-3.4,0-5.4,2.5-5.4,6.5v1.9c0,4.2,2,6.6,5.4,6.6c3.8,0,5.1-2.9,5.1-4.9v-3.2h-5.6V34.5z M73.6,35.1
		c0,2-1.1,3.2-3,3.2c-1.8,0-3-1.2-3-3.2v-9.3h-2.2V35c0,3.2,2.1,5.4,5.2,5.4c3.1,0,5.2-2.2,5.2-5.4v-9.3h-2.2V35.1z M31.9,34.2
		l2.7,6h-2.5l-2.4-5.5H27v5.5h-2.2V25.8h4.9c3.3,0,4.4,2.4,4.4,4.4C34.1,32.6,32.7,33.7,31.9,34.2z M31.9,30.3
		c0-1.5-0.8-2.3-2.3-2.3H27v4.6h2.4C31.1,32.5,31.9,31.8,31.9,30.3z M98.1,25.8l4.8,14.4h-2.4L99.2,36h-4.3l-1.3,4.2h-2.3l4.8-14.4
		H98.1z M98.6,33.9l-1.5-4.7l-1.5,4.7H98.6z M104.1,27.9h3.9v12.2h2.2V27.9h3.9v-2.2h-10.1V27.9z M38.6,40.2h8.3V38h-6.1v-4.1h5.8
		v-2.2h-5.8v-3.8h6.1v-2.2h-8.3V40.2z M82.7,25.8h-2.2v14.4h8.2V38h-6V25.8z M127.7,32v2.1c0,3.9-2.1,6.4-5.5,6.4
		c-3.3,0-5.4-2.4-5.4-6.4V32c0-4,2.1-6.5,5.4-6.5C125.7,25.5,127.7,28,127.7,32z M125.5,32c0-2.7-1.2-4.4-3.2-4.4
		c-2,0-3.2,1.7-3.2,4.4v2.1c0,2.7,1.2,4.2,3.2,4.2c2.1,0,3.2-1.5,3.2-4.2V32z M385.6,25.8l4.8,14.4h-2.4l-1.3-4.2h-4.3l-1.3,4.2
		h-2.3l4.8-14.4H385.6z M386.1,33.9l-1.5-4.7l-1.5,4.7H386.1z M391.6,27.9h3.9v12.2h2.2V27.9h3.9v-2.2h-10.1V27.9z M373.2,40.2h2.2
		V25.8h-2.2V40.2z M363.9,25.5c-3.3,0-5.3,2.5-5.3,6.5V34c0,4,2,6.4,5.3,6.4c3.3,0,5-2.4,5-4.7v-0.4h-2.2v0.4c0,1.2-0.9,2.5-2.8,2.5
		c-2.6,0-3.2-2.3-3.2-4.3v-2c0-2.8,1.1-4.4,3.1-4.4c1.8,0,2.8,1.4,2.8,2.8v0.4h2.2v-0.4C368.9,28,367.2,25.5,363.9,25.5z
		 M405.2,40.2h8.3V38h-6.1v-4.1h5.8v-2.2h-5.8v-3.8h6.1v-2.2h-8.3V40.2z M219.9,30.3c0,2.7-1.8,4.6-4.4,4.6h-2.7v5.3h-2.2V25.8h5
		C218.1,25.8,219.9,27.6,219.9,30.3z M217.7,30.3c0-1.6-0.8-2.4-2.2-2.4h-2.7v4.8h1.7C216.9,32.8,217.7,32.2,217.7,30.3z M423.3,32
		l-2.3-0.7c-1-0.3-1.6-0.9-1.6-1.8c0-1.5,1.3-2,2.5-2c1.5,0,2.4,0.8,2.6,2.1l0,0.3h2.2l0-0.4c-0.1-2.9-2.5-4.2-4.7-4.2
		c-2.4,0-4.7,1.5-4.7,4.3c0,2.6,2,3.6,3.2,3.9l2.3,0.7c1.3,0.4,1.9,0.9,1.9,1.9c0,1.3-1,2.1-2.7,2.1c-1.7,0-2.8-0.8-2.9-2.2l0-0.3
		h-2.2l0,0.4c0.1,2,1.4,4.3,4.9,4.3c3.1,0,5.1-1.7,5.1-4.4C426.9,33.4,425,32.5,423.3,32z M354.7,32v2.1c0,3.9-2.1,6.4-5.5,6.4
		c-3.3,0-5.4-2.4-5.4-6.4V32c0-4,2.1-6.5,5.4-6.5C352.6,25.5,354.7,28,354.7,32z M352.5,32c0-2.7-1.2-4.4-3.2-4.4
		c-2,0-3.2,1.7-3.2,4.4v2.1c0,2.7,1.2,4.2,3.2,4.2c2.1,0,3.2-1.5,3.2-4.2V32z M460.3,35.9l-6.1-10.1h-2.1v14.4h2.2V30l6.1,10.1h2.1
		V25.8h-2.2V35.9z M445.1,40.2h2.2V25.8h-2.2V40.2z M476.2,30.8v-0.4c0-2.5-1.7-4.9-5-4.9c-3.3,0-5.3,2.5-5.3,6.5V34
		c0,4,2,6.4,5.3,6.4c3.3,0,5-2.4,5-4.7v-0.4H474v0.4c0,1.2-0.9,2.5-2.8,2.5c-2.6,0-3.2-2.3-3.2-4.3v-2c0-2.8,1.1-4.4,3.1-4.4
		c1.8,0,2.8,1.4,2.8,2.8v0.4H476.2z M235.4,40.2h2.2V25.8h-2.2V40.2z M247.8,25.8l4.8,14.4h-2.4L249,36h-4.3l-1.3,4.2H241l4.8-14.4
		H247.8z M248.3,33.9l-1.5-4.7l-1.5,4.7H248.3z M264.2,35.9l-6.1-10.1h-2.1v14.4h2.2V30l6.1,10.1h2.1V25.8h-2.2V35.9z M225.9,25.8
		h-2.2v14.4h8.2V38h-6V25.8z M309.7,25.8l4.8,14.4h-2.4l-1.3-4.2h-4.3l-1.3,4.2h-2.3l4.8-14.4H309.7z M310.2,33.9l-1.5-4.7l-1.5,4.7
		H310.2z M276.1,25.5c-3.3,0-5.3,2.5-5.3,6.5V34c0,4,2,6.4,5.3,6.4c3.3,0,5-2.4,5-4.7v-0.4h-2.2v0.4c0,1.2-0.9,2.5-2.8,2.5
		c-2.6,0-3.2-2.3-3.2-4.3v-2c0-2.8,1.1-4.4,3.1-4.4c1.8,0,2.8,1.4,2.8,2.8v0.4h2.2v-0.4C281.1,28,279.4,25.5,276.1,25.5z M336.6,32
		l-2.3-0.7c-1-0.3-1.6-0.9-1.6-1.8c0-1.5,1.3-2,2.5-2c1.5,0,2.4,0.8,2.6,2.1l0,0.3h2.2l0-0.4c-0.1-2.9-2.5-4.2-4.7-4.2
		c-2.4,0-4.7,1.5-4.7,4.3c0,2.6,2,3.6,3.2,3.9l2.3,0.7c1.3,0.4,1.9,0.9,1.9,1.9c0,1.3-1,2.1-2.7,2.1c-1.7,0-2.8-0.8-2.9-2.2l0-0.3
		h-2.2l0,0.4c0.1,2,1.4,4.3,4.9,4.3c3.1,0,5.1-1.7,5.1-4.4C340.2,33.4,338.3,32.5,336.6,32z M323.4,32l-2.3-0.7
		c-1-0.3-1.6-0.9-1.6-1.8c0-1.5,1.3-2,2.5-2c1.5,0,2.4,0.8,2.6,2.1l0,0.3h2.2l0-0.4c-0.1-2.9-2.5-4.2-4.7-4.2
		c-2.4,0-4.7,1.5-4.7,4.3c0,2.6,2,3.6,3.2,3.9l2.3,0.7c1.3,0.4,1.9,0.9,1.9,1.9c0,1.3-1,2.1-2.7,2.1c-1.7,0-2.8-0.8-2.9-2.2l0-0.3
		H317l0,0.4c0.1,2,1.4,4.3,4.9,4.3c3.1,0,5.1-1.7,5.1-4.4C327,33.4,325.1,32.5,323.4,32z M285.4,40.2h8.3V38h-6.1v-4.1h5.8v-2.2
		h-5.8v-3.8h6.1v-2.2h-8.3V40.2z M432.6,29l0.6,1.2h-0.9l-0.5-1.1h-0.3v1.1h-0.7v-3h1.3c0.5,0,0.9,0.4,0.9,1
		C433.1,28.6,432.9,28.9,432.6,29z M432.4,28.2c0-0.3-0.2-0.3-0.4-0.3h-0.4v0.7h0.3C432.2,28.5,432.4,28.4,432.4,28.2z M434.7,28.5
		v0.4c0,1.6-1.2,2.8-2.8,2.8s-2.8-1.2-2.8-2.8v-0.4c0-1.5,1.2-2.7,2.8-2.7C433.5,25.8,434.7,27,434.7,28.5z M433.9,28.5
		c0-1.1-0.9-2-2-2c-1.2,0-2,0.8-2,2v0.4c0,1.2,0.8,2.1,2,2.1c1.2,0,2-0.9,2-2.1V28.5z"/>
</g>
<g>
</g>
<g>
</g>
<g>
</g>
<g>
</g>
<g>
</g>
<g>
</g>
<g>
</g>
<g>
</g>
<g>
</g>
<g>
</g>
<g>
</g>
<g>
</g>
<g>
</g>
<g>
</g>
<g>
</g>
</svg>
