<svg 
 xmlns="http://www.w3.org/2000/svg"
 xmlns:xlink="http://www.w3.org/1999/xlink"
 width="678px" height="94px">
<path fill-rule="evenodd"  fill="rgb(255, 255, 255)"
 d="M655.808,47.882 L655.808,48.380 C655.808,51.557 653.327,54.934 648.728,54.934 C644.055,54.934 641.265,51.577 641.265,45.954 L641.265,43.080 C641.265,37.472 644.134,33.988 648.754,33.988 C653.385,33.988 655.808,37.461 655.808,40.893 L655.808,41.391 L652.725,41.391 L652.725,40.893 C652.725,39.014 651.334,37.018 648.754,37.018 C645.954,37.018 644.348,39.242 644.348,43.122 L644.348,45.926 C644.348,48.647 645.124,51.891 648.820,51.891 C651.517,51.891 652.725,50.128 652.725,48.380 L652.725,47.882 L655.808,47.882 ZM622.108,54.527 L622.108,34.394 L624.988,34.394 L633.516,48.577 L633.516,34.394 L636.612,34.394 L636.612,54.527 L633.733,54.527 L625.205,40.364 L625.205,54.527 L622.108,54.527 ZM612.192,54.527 L612.192,34.394 L615.289,34.394 L615.289,54.527 L612.192,54.527 ZM597.541,38.267 L597.541,38.824 C597.541,41.122 595.905,42.791 593.652,42.791 C591.399,42.791 589.763,41.122 589.763,38.824 L589.763,38.267 C589.763,36.112 591.472,34.423 593.652,34.423 C595.832,34.423 597.541,36.112 597.541,38.267 ZM590.815,38.267 L590.815,38.824 C590.815,40.488 592.008,41.695 593.652,41.695 C595.300,41.695 596.496,40.488 596.496,38.824 L596.496,38.267 C596.496,36.692 595.274,35.503 593.652,35.503 C592.034,35.503 590.815,36.692 590.815,38.267 ZM595.306,37.735 C595.306,38.275 595.042,38.752 594.647,38.964 L595.531,40.645 L594.325,40.645 L593.592,39.130 L593.212,39.130 L593.212,40.645 L592.182,40.645 L592.182,36.404 L594.014,36.404 C594.750,36.404 595.306,36.977 595.306,37.735 ZM593.745,37.296 L593.212,37.296 L593.212,38.247 L593.636,38.247 C594.098,38.247 594.269,38.117 594.269,37.767 C594.269,37.356 593.941,37.296 593.745,37.296 ZM581.587,43.106 C583.923,43.777 586.604,45.027 586.604,48.758 C586.604,52.510 583.799,54.934 579.457,54.934 C574.500,54.934 572.637,51.699 572.547,48.928 L572.531,48.414 L575.625,48.414 L575.669,48.865 C575.847,50.731 577.401,51.891 579.720,51.891 C582.058,51.891 583.454,50.778 583.454,48.912 C583.454,47.543 582.700,46.776 580.853,46.266 L577.620,45.355 C575.932,44.878 573.102,43.535 573.102,39.898 C573.102,35.981 576.452,33.932 579.760,33.932 C582.908,33.932 586.334,35.778 586.419,39.831 L586.430,40.340 L583.352,40.340 L583.311,39.886 C583.144,38.028 581.830,36.961 579.708,36.961 C578.030,36.961 576.238,37.692 576.238,39.743 C576.238,40.974 576.971,41.798 578.416,42.193 L581.587,43.106 ZM567.787,51.498 L567.787,54.527 L556.117,54.527 L556.117,34.394 L567.787,34.394 L567.787,37.423 L559.214,37.423 L559.214,42.736 L567.312,42.736 L567.312,45.752 L559.214,45.752 L559.214,51.498 L567.787,51.498 ZM542.602,54.527 L542.602,37.410 L537.089,37.410 L537.089,34.394 L551.225,34.394 L551.225,37.410 L545.700,37.410 L545.700,54.527 L542.602,54.527 ZM535.425,54.527 L532.108,54.527 L530.235,48.640 L524.161,48.640 L522.275,54.527 L519.065,54.527 L525.864,34.394 L528.626,34.394 L535.425,54.527 ZM525.074,45.806 L529.323,45.806 L527.199,39.169 L525.074,45.806 ZM511.192,54.527 L511.192,34.394 L514.289,34.394 L514.289,54.527 L511.192,54.527 ZM32.360,54.527 L29.010,46.831 L25.288,46.831 L25.288,54.527 L22.192,54.527 L22.192,34.394 L29.087,34.394 C33.662,34.394 35.285,37.706 35.285,40.542 C35.285,44.004 33.320,45.516 32.085,46.124 L35.875,54.527 L32.360,54.527 ZM32.123,40.697 C32.123,38.578 30.951,37.410 28.824,37.410 L25.288,37.410 L25.288,43.816 L28.718,43.816 C30.977,43.816 32.123,42.767 32.123,40.697 ZM53.166,51.498 L53.166,54.527 L41.497,54.527 L41.497,34.394 L53.166,34.394 L53.166,37.423 L44.593,37.423 L44.593,42.736 L52.691,42.736 L52.691,45.752 L44.593,45.752 L44.593,51.498 L53.166,51.498 ZM65.498,46.649 L65.498,43.606 L73.355,43.606 L73.355,48.085 C73.355,50.838 71.442,54.934 66.169,54.934 C61.367,54.934 58.613,51.585 58.613,45.744 L58.613,43.080 C58.613,37.472 61.538,33.988 66.248,33.988 C70.808,33.988 73.077,37.327 73.302,40.635 L73.338,41.167 L70.275,41.167 L70.223,40.727 C69.948,38.404 68.442,37.018 66.195,37.018 C63.336,37.018 61.697,39.228 61.697,43.080 L61.697,45.744 C61.697,48.039 62.273,51.891 66.129,51.891 C68.584,51.891 70.298,50.326 70.298,48.085 L70.298,46.649 L65.498,46.649 ZM93.755,34.394 L93.755,47.385 C93.755,51.900 90.841,54.934 86.503,54.934 C82.232,54.934 79.250,51.807 79.250,47.328 L79.250,34.394 L82.347,34.394 L82.347,47.385 C82.347,50.173 83.939,51.905 86.503,51.905 C89.066,51.905 90.658,50.173 90.658,47.385 L90.658,34.394 L93.755,34.394 ZM103.460,34.394 L103.460,51.498 L111.861,51.498 L111.861,54.527 L100.363,54.527 L100.363,34.394 L103.460,34.394 ZM120.599,48.640 L118.713,54.527 L115.502,54.527 L122.301,34.394 L125.064,34.394 L131.863,54.527 L128.546,54.527 L126.673,48.640 L120.599,48.640 ZM123.636,39.169 L121.512,45.806 L125.761,45.806 L123.636,39.169 ZM139.039,54.527 L139.039,37.410 L133.526,37.410 L133.526,34.394 L147.662,34.394 L147.662,37.410 L142.136,37.410 L142.136,54.527 L139.039,54.527 ZM151.447,45.996 L151.447,43.122 C151.447,37.573 154.444,33.988 159.082,33.988 C163.776,33.988 166.691,37.488 166.691,43.122 L166.691,45.996 C166.691,51.510 163.755,54.934 159.030,54.934 C154.353,54.934 151.447,51.510 151.447,45.996 ZM163.594,45.996 L163.594,43.122 C163.594,39.357 161.855,37.018 159.056,37.018 C156.273,37.018 154.544,39.357 154.544,43.122 L154.544,45.996 C154.544,49.743 156.189,51.891 159.056,51.891 C161.940,51.891 163.594,49.743 163.594,45.996 ZM493.759,87.887 L493.759,84.582 L674.684,84.582 L674.684,4.284 L3.316,4.284 L3.316,84.582 L184.359,84.582 L184.359,87.887 L-0.000,87.887 L-0.000,0.979 L678.000,0.979 L678.000,87.887 L493.759,87.887 ZM182.965,54.527 L179.616,46.831 L175.894,46.831 L175.894,54.527 L172.797,54.527 L172.797,34.394 L179.693,34.394 C184.267,34.394 185.891,37.706 185.891,40.542 C185.891,44.004 183.926,45.516 182.690,46.124 L186.480,54.527 L182.965,54.527 ZM182.728,40.697 C182.728,38.578 181.556,37.410 179.429,37.410 L175.894,37.410 L175.894,43.816 L179.324,43.816 C181.582,43.816 182.728,42.767 182.728,40.697 ZM197.226,42.499 L201.588,34.394 L205.153,34.394 L198.774,45.761 L198.774,54.527 L195.690,54.527 L195.690,45.761 L189.324,34.394 L192.889,34.394 L197.226,42.499 ZM199.773,89.416 L199.909,89.416 L203.436,75.291 L206.121,75.291 L209.620,89.416 L209.769,89.416 L212.984,75.291 L216.130,75.291 L211.099,93.742 L208.548,93.742 L204.832,79.981 L204.697,79.981 L200.967,93.742 L198.431,93.742 L193.413,75.291 L196.560,75.291 L199.773,89.416 ZM225.067,33.988 C229.698,33.988 232.121,37.461 232.121,40.893 L232.121,41.391 L229.038,41.391 L229.038,40.893 C229.038,39.014 227.646,37.018 225.067,37.018 C222.266,37.018 220.660,39.242 220.660,43.122 L220.660,45.926 C220.660,48.647 221.436,51.891 225.132,51.891 C227.830,51.891 229.038,50.128 229.038,48.380 L229.038,47.882 L232.121,47.882 L232.121,48.380 C232.121,51.557 229.639,54.934 225.040,54.934 C220.367,54.934 217.577,51.577 217.577,45.954 L217.577,43.080 C217.577,37.472 220.447,33.988 225.067,33.988 ZM224.156,79.223 C227.682,79.223 230.192,81.697 230.192,85.618 L230.192,87.308 L220.833,87.308 L220.833,87.997 C220.833,90.065 222.082,91.607 224.319,91.607 C225.946,91.607 227.045,90.863 227.276,89.984 L230.015,89.984 C229.812,91.620 228.076,93.986 224.346,93.986 C220.467,93.986 218.121,91.593 218.121,87.578 L218.121,85.618 C218.121,81.589 220.698,79.223 224.156,79.223 ZM220.833,85.374 L227.493,85.374 L227.493,85.171 C227.493,82.995 226.177,81.536 224.170,81.536 C222.163,81.536 220.833,82.995 220.833,85.171 L220.833,85.374 ZM237.226,93.742 L234.486,93.742 L234.486,74.317 L237.226,74.317 L237.226,93.742 ZM245.019,33.988 C249.712,33.988 252.628,37.488 252.628,43.122 L252.628,45.996 C252.628,51.510 249.692,54.934 244.966,54.934 C240.289,54.934 237.384,51.510 237.384,45.996 L237.384,43.122 C237.384,37.573 240.381,33.988 245.019,33.988 ZM240.481,45.996 C240.481,49.743 242.125,51.891 244.992,51.891 C247.877,51.891 249.531,49.743 249.531,45.996 L249.531,43.122 C249.531,39.357 247.792,37.018 244.992,37.018 C242.209,37.018 240.481,39.357 240.481,43.122 L240.481,45.996 ZM245.101,93.742 L242.361,93.742 L242.361,74.317 L245.101,74.317 L245.101,93.742 ZM252.852,82.022 L252.987,82.022 C253.354,80.914 254.357,79.251 257.301,79.251 C260.190,79.251 262.142,80.832 262.142,84.076 L262.142,93.742 L259.389,93.742 L259.389,84.915 C259.389,82.725 258.250,81.711 256.446,81.711 C254.072,81.711 252.879,83.441 252.879,85.780 L252.879,93.742 L250.140,93.742 L250.140,79.467 L252.852,79.467 L252.852,82.022 ZM261.712,54.527 L258.800,54.527 L258.800,34.394 L261.657,34.394 L267.436,48.959 L273.189,34.394 L276.060,34.394 L276.060,54.527 L273.148,54.527 L273.148,42.053 L268.711,53.056 L266.149,53.056 L261.712,42.080 L261.712,54.527 ZM272.378,79.223 C275.904,79.223 278.413,81.697 278.413,85.618 L278.413,87.308 L269.055,87.308 L269.055,87.997 C269.055,90.065 270.303,91.607 272.541,91.607 C274.168,91.607 275.267,90.863 275.498,89.984 L278.237,89.984 C278.034,91.620 276.298,93.986 272.568,93.986 C268.689,93.986 266.342,91.593 266.342,87.578 L266.342,85.618 C266.342,81.589 268.920,79.223 272.378,79.223 ZM269.055,85.374 L275.715,85.374 L275.715,85.171 C275.715,82.995 274.399,81.536 272.392,81.536 C270.384,81.536 269.055,82.995 269.055,85.171 L269.055,85.374 ZM287.320,91.823 C289.449,91.823 290.331,90.917 290.331,89.782 C290.331,88.280 288.717,88.038 286.751,87.659 C284.119,87.132 281.977,86.416 281.977,83.604 C281.977,80.521 284.567,79.223 287.415,79.223 C290.520,79.223 292.623,80.792 292.623,83.306 L290.127,83.306 C290.032,82.360 289.151,81.359 287.334,81.359 C285.733,81.359 284.607,82.104 284.607,83.346 C284.607,84.955 286.601,85.158 288.202,85.443 C290.860,85.901 293.003,86.740 293.003,89.444 C293.003,92.322 290.711,93.986 287.185,93.986 C283.889,93.986 281.705,92.458 281.705,89.916 L284.377,89.916 C284.553,91.080 285.408,91.823 287.320,91.823 ZM282.946,54.527 L282.946,34.394 L289.895,34.394 C293.586,34.394 296.066,36.960 296.066,40.781 C296.066,44.592 293.586,47.154 289.895,47.154 L286.042,47.154 L286.042,54.527 L282.946,54.527 ZM288.365,44.152 C291.800,44.152 292.903,43.332 292.903,40.781 C292.903,38.607 291.807,37.410 289.815,37.410 L286.042,37.410 L286.042,44.152 L288.365,44.152 ZM301.407,34.394 L304.504,34.394 L304.504,51.498 L312.905,51.498 L312.905,54.527 L301.407,54.527 L301.407,34.394 ZM301.855,91.823 C303.984,91.823 304.866,90.917 304.866,89.782 C304.866,88.280 303.251,88.038 301.285,87.659 C298.654,87.132 296.511,86.416 296.511,83.604 C296.511,80.521 299.102,79.223 301.949,79.223 C305.055,79.223 307.157,80.792 307.157,83.306 L304.662,83.306 C304.567,82.360 303.685,81.359 301.868,81.359 C300.268,81.359 299.142,82.104 299.142,83.346 C299.142,84.955 301.136,85.158 302.736,85.443 C305.394,85.901 307.538,86.740 307.538,89.444 C307.538,92.322 305.245,93.986 301.719,93.986 C298.424,93.986 296.240,92.458 296.240,89.916 L298.911,89.916 C299.088,91.080 299.943,91.823 301.855,91.823 ZM317.797,34.394 L320.894,34.394 L320.894,54.527 L317.797,54.527 L317.797,34.394 ZM319.448,78.128 C319.448,75.330 320.791,74.115 324.046,74.115 C324.792,74.115 325.524,74.182 325.768,74.209 L325.768,76.425 C325.565,76.398 324.887,76.358 324.480,76.358 C322.853,76.358 322.147,76.831 322.147,78.358 L322.147,79.548 L325.443,79.548 L325.443,81.887 L322.188,81.887 L322.188,93.742 L319.448,93.742 L319.448,81.887 L317.061,81.887 L317.061,79.548 L319.448,79.548 L319.448,78.128 ZM336.841,48.640 L330.767,48.640 L328.881,54.527 L325.670,54.527 L332.469,34.394 L335.232,34.394 L342.032,54.527 L338.714,54.527 L336.841,48.640 ZM333.804,39.169 L331.680,45.806 L335.929,45.806 L333.804,39.169 ZM334.566,79.223 C338.214,79.223 340.831,81.630 340.831,85.645 L340.831,87.525 C340.831,91.646 338.214,93.986 334.566,93.986 C330.863,93.986 328.286,91.674 328.286,87.525 L328.286,85.645 C328.286,81.752 330.903,79.223 334.566,79.223 ZM331.026,87.403 C331.026,89.835 332.260,91.593 334.566,91.593 C336.844,91.593 338.064,89.835 338.064,87.403 L338.064,85.794 C338.064,83.374 336.776,81.589 334.566,81.589 C332.355,81.589 331.026,83.374 331.026,85.794 L331.026,87.403 ZM348.042,81.685 L348.178,81.685 C348.517,80.724 349.561,79.251 352.015,79.251 C352.368,79.251 352.694,79.292 352.964,79.332 L352.964,81.927 C352.721,81.860 352.219,81.833 351.745,81.833 C349.289,81.833 348.083,83.280 348.083,85.199 L348.083,93.742 L345.302,93.742 L345.302,79.467 L348.042,79.467 L348.042,81.685 ZM349.904,54.527 L346.807,54.527 L346.807,34.394 L349.687,34.394 L358.215,48.577 L358.215,34.394 L361.312,34.394 L361.312,54.527 L358.431,54.527 L349.904,40.365 L349.904,54.527 ZM375.562,79.833 C375.562,82.117 374.288,83.415 372.538,83.887 L372.538,84.023 C375.020,84.306 376.594,85.969 376.594,88.551 C376.594,91.945 373.868,93.742 370.124,93.742 L363.113,93.742 L363.113,75.291 L370.315,75.291 C373.434,75.291 375.562,76.966 375.562,79.833 ZM365.892,91.349 L368.944,91.349 C371.739,91.349 373.732,90.769 373.732,88.457 C373.732,86.416 372.254,85.388 370.029,85.388 L365.892,85.388 L365.892,91.349 ZM365.892,77.682 L365.892,83.103 L368.591,83.103 C371.372,83.103 372.783,82.252 372.783,80.346 C372.783,78.521 371.481,77.682 369.786,77.682 L365.892,77.682 ZM381.962,47.882 L381.962,48.380 C381.962,51.557 379.480,54.934 374.882,54.934 C370.209,54.934 367.419,51.577 367.419,45.954 L367.419,43.080 C367.419,37.472 370.288,33.988 374.908,33.988 C379.539,33.988 381.962,37.461 381.962,40.893 L381.962,41.391 L378.879,41.391 L378.879,40.893 C378.879,39.014 377.488,37.018 374.908,37.018 C372.108,37.018 370.502,39.242 370.502,43.122 L370.502,45.926 C370.502,48.647 371.278,51.891 374.975,51.891 C377.671,51.891 378.879,50.128 378.879,48.380 L378.879,47.882 L381.962,47.882 ZM383.194,88.524 C383.194,90.809 384.564,91.498 386.179,91.498 C388.146,91.498 389.664,90.106 389.664,88.307 L389.664,79.467 L392.403,79.467 L392.403,93.742 L389.691,93.742 L389.691,91.363 L389.555,91.363 C389.148,92.511 387.832,93.972 385.325,93.972 C382.462,93.972 380.455,92.606 380.455,89.267 L380.455,79.467 L383.194,79.467 L383.194,88.524 ZM399.606,51.498 L399.606,54.527 L387.937,54.527 L387.937,34.394 L399.606,34.394 L399.606,37.423 L391.034,37.423 L391.034,42.736 L399.132,42.736 L399.132,45.752 L391.034,45.752 L391.034,51.498 L399.606,51.498 ZM402.069,91.823 C404.198,91.823 405.080,90.917 405.080,89.782 C405.080,88.280 403.466,88.038 401.499,87.659 C398.869,87.132 396.725,86.416 396.725,83.604 C396.725,80.521 399.317,79.223 402.164,79.223 C405.271,79.223 407.372,80.792 407.372,83.306 L404.876,83.306 C404.782,82.360 403.900,81.359 402.083,81.359 C400.483,81.359 399.357,82.104 399.357,83.346 C399.357,84.955 401.351,85.158 402.951,85.443 C405.610,85.901 407.752,86.740 407.752,89.444 C407.752,92.322 405.460,93.986 401.933,93.986 C398.638,93.986 396.455,92.458 396.455,89.916 L399.126,89.916 C399.303,91.080 400.157,91.823 402.069,91.823 ZM413.580,73.344 C414.706,73.344 415.479,74.101 415.479,75.155 C415.479,76.195 414.706,76.952 413.580,76.952 C412.508,76.952 411.721,76.195 411.721,75.155 C411.721,74.101 412.495,73.344 413.580,73.344 ZM414.963,93.742 L412.224,93.742 L412.224,79.467 L414.963,79.467 L414.963,93.742 ZM419.356,34.394 L422.119,34.394 L428.918,54.527 L425.600,54.527 L423.728,48.640 L417.653,48.640 L415.768,54.527 L412.556,54.527 L419.356,34.394 ZM422.816,45.806 L420.691,39.169 L418.566,45.806 L422.816,45.806 ZM422.945,82.022 L423.081,82.022 C423.448,80.914 424.451,79.251 427.395,79.251 C430.283,79.251 432.236,80.832 432.236,84.076 L432.236,93.742 L429.482,93.742 L429.482,84.915 C429.482,82.725 428.344,81.711 426.539,81.711 C424.166,81.711 422.972,83.441 422.972,85.780 L422.972,93.742 L420.234,93.742 L420.234,79.467 L422.945,79.467 L422.945,82.022 ZM435.417,48.865 C435.595,50.731 437.149,51.891 439.469,51.891 C441.806,51.891 443.202,50.778 443.202,48.912 C443.202,47.543 442.448,46.776 440.601,46.266 L437.367,45.355 C435.679,44.878 432.849,43.535 432.849,39.898 C432.849,35.981 436.199,33.932 439.508,33.932 C442.655,33.932 446.082,35.778 446.167,39.831 L446.178,40.340 L443.100,40.340 L443.059,39.886 C442.892,38.027 441.578,36.961 439.455,36.961 C437.777,36.961 435.985,37.692 435.985,39.743 C435.985,40.974 436.717,41.798 438.163,42.193 L441.334,43.106 C443.671,43.777 446.352,45.026 446.352,48.758 C446.352,52.510 443.547,54.934 439.205,54.934 C434.248,54.934 432.385,51.699 432.295,48.928 L432.279,48.414 L435.373,48.414 L435.417,48.865 ZM442.472,79.223 C445.999,79.223 448.507,81.697 448.507,85.618 L448.507,87.308 L439.150,87.308 L439.150,87.997 C439.150,90.065 440.397,91.607 442.635,91.607 C444.263,91.607 445.362,90.863 445.591,89.984 L448.331,89.984 C448.128,91.620 446.392,93.986 442.661,93.986 C438.783,93.986 436.437,91.593 436.437,87.578 L436.437,85.618 C436.437,81.589 439.014,79.223 442.472,79.223 ZM439.150,85.374 L445.808,85.374 L445.808,85.171 C445.808,82.995 444.494,81.536 442.486,81.536 C440.478,81.536 439.150,82.995 439.150,85.171 L439.150,85.374 ZM453.944,48.865 C454.123,50.731 455.676,51.891 457.996,51.891 C460.334,51.891 461.730,50.778 461.730,48.912 C461.730,47.543 460.977,46.776 459.128,46.266 L455.896,45.355 C454.208,44.878 451.377,43.535 451.377,39.898 C451.377,35.981 454.727,33.932 458.036,33.932 C461.184,33.932 464.610,35.778 464.694,39.831 L464.705,40.340 L461.628,40.340 L461.587,39.886 C461.419,38.028 460.106,36.961 457.983,36.961 C456.306,36.961 454.513,37.692 454.513,39.743 C454.513,40.974 455.246,41.798 456.691,42.193 L459.863,43.106 C462.198,43.777 464.879,45.027 464.879,48.758 C464.879,52.510 462.074,54.934 457.732,54.934 C452.775,54.934 450.912,51.699 450.822,48.928 L450.806,48.414 L453.900,48.414 L453.944,48.865 ZM457.413,91.823 C459.543,91.823 460.424,90.917 460.424,89.782 C460.424,88.280 458.810,88.038 456.843,87.659 C454.213,87.132 452.069,86.416 452.069,83.604 C452.069,80.521 454.660,79.223 457.508,79.223 C460.615,79.223 462.716,80.792 462.716,83.306 L460.220,83.306 C460.126,82.360 459.244,81.359 457.427,81.359 C455.827,81.359 454.701,82.104 454.701,83.346 C454.701,84.955 456.695,85.158 458.295,85.443 C460.953,85.901 463.096,86.740 463.096,89.444 C463.096,92.322 460.804,93.986 457.277,93.986 C453.982,93.986 451.799,92.458 451.799,89.916 L454.470,89.916 C454.647,91.080 455.501,91.823 457.413,91.823 ZM471.948,91.823 C474.077,91.823 474.958,90.917 474.958,89.782 C474.958,88.280 473.345,88.038 471.378,87.659 C468.748,87.132 466.604,86.416 466.604,83.604 C466.604,80.521 469.196,79.223 472.043,79.223 C475.149,79.223 477.251,80.792 477.251,83.306 L474.755,83.306 C474.660,82.360 473.779,81.359 471.962,81.359 C470.362,81.359 469.235,82.104 469.235,83.346 C469.235,84.955 471.230,85.158 472.830,85.443 C475.489,85.901 477.631,86.740 477.631,89.444 C477.631,92.322 475.339,93.986 471.812,93.986 C468.517,93.986 466.334,92.458 466.334,89.916 L469.005,89.916 C469.182,91.080 470.036,91.823 471.948,91.823 ZM470.036,45.996 L470.036,43.122 C470.036,37.573 473.033,33.988 477.670,33.988 C482.364,33.988 485.279,37.488 485.279,43.122 L485.279,45.996 C485.279,51.510 482.343,54.934 477.618,54.934 C472.941,54.934 470.036,51.510 470.036,45.996 ZM482.182,45.996 L482.182,43.122 C482.182,39.357 480.443,37.018 477.644,37.018 C474.861,37.018 473.132,39.357 473.132,43.122 L473.132,45.996 C473.132,49.743 474.776,51.891 477.644,51.891 C480.528,51.891 482.182,49.743 482.182,45.996 ZM484.251,75.291 C486.459,75.291 488.131,76.909 488.131,78.904 L488.131,79.449 C488.131,81.596 486.507,83.191 484.251,83.191 C482.001,83.191 480.371,81.596 480.371,79.449 L480.371,78.904 C480.371,76.892 482.033,75.291 484.251,75.291 ZM481.162,79.449 C481.162,81.139 482.453,82.401 484.251,82.401 C486.049,82.401 487.347,81.139 487.347,79.449 L487.347,78.913 C487.347,77.343 486.041,76.071 484.251,76.071 C482.461,76.071 481.162,77.335 481.162,78.913 L481.162,79.449 ZM485.850,78.431 C485.850,78.992 485.526,79.434 485.105,79.552 L485.969,81.044 L485.050,81.044 L484.298,79.647 L483.641,79.647 L483.641,81.044 L482.840,81.044 L482.840,77.263 L484.623,77.263 C485.351,77.263 485.850,77.768 485.850,78.431 ZM483.641,77.887 L483.641,79.032 L484.251,79.032 C484.615,79.032 485.035,78.961 485.035,78.456 C485.035,78.085 484.749,77.887 484.346,77.887 L483.641,77.887 ZM498.163,33.988 C502.794,33.988 505.217,37.461 505.217,40.893 L505.217,41.391 L502.134,41.391 L502.134,40.893 C502.134,39.014 500.742,37.018 498.163,37.018 C495.363,37.018 493.757,39.242 493.757,43.122 L493.757,45.926 C493.757,48.647 494.533,51.891 498.228,51.891 C500.926,51.891 502.134,50.128 502.134,48.380 L502.134,47.882 L505.217,47.882 L505.217,48.380 C505.217,51.557 502.735,54.934 498.136,54.934 C493.463,54.934 490.672,51.577 490.672,45.954 L490.672,43.080 C490.672,37.472 493.543,33.988 498.163,33.988 Z"/>
</svg>