<?xml version="1.0" encoding="utf-8"?>
<!-- Generator: Adobe Illustrator 21.0.0, SVG Export Plug-In . SVG Version: 6.00 Build 0)  -->
<svg version="1.1" id="Layer_1" xmlns="http://www.w3.org/2000/svg" xmlns:xlink="http://www.w3.org/1999/xlink" x="0px" y="0px"
	 viewBox="0 0 200 285" style="enable-background:new 0 0 200 285;" xml:space="preserve">
<style type="text/css">
	.st0{fill:#9D938B;}
</style>
<path id="Case_Studies_Icon" class="st0" d="M150,71.2h50L135.7-0.1v55.4C135.5,64,141.9,71,150,71.2z M135.7,87H200v182.1
	c0.1,8.6-6.2,15.7-14.3,15.8H14.3c-8-0.2-14.4-7.2-14.3-15.8V15.8C-0.1,7.2,6.2,0.1,14.3-0.1h107.1v71.3
	C121.3,79.8,127.7,86.9,135.7,87z M122.3,189.7c-2.5,2.8-2.5,7.3,0,10.1l22.7,25.2c2.4,2.7,6.3,2.8,8.8,0.3c0.1-0.1,0.2-0.2,0.3-0.3
	l4.5-5c2.5-2.8,2.5-7.3,0-10.1l-22.7-25.2c-2.4-2.7-6.4-2.8-8.9-0.2c-0.1,0.1-0.1,0.2-0.2,0.2L122.3,189.7z M49.6,142.5
	c0.8,24.7,20.2,44,43.3,43.1s41.1-21.6,40.3-46.3c-0.8-24-19.3-43.1-41.8-43.1C67.9,96.6,49.3,117.4,49.6,142.5z M59.3,140
	c0.6-19,15.6-33.8,33.3-33.1c17.8,0.7,31.6,16.6,31,35.6c-0.6,18.5-14.8,33.1-32.1,33.1C73.4,175.2,59,159.3,59.3,140z"/>
</svg>
