<?xml version="1.0" encoding="utf-8"?>
<!-- Generator: Adobe Illustrator 21.0.0, SVG Export Plug-In . SVG Version: 6.00 Build 0)  -->
<svg version="1.1" id="Layer_1" xmlns="http://www.w3.org/2000/svg" xmlns:xlink="http://www.w3.org/1999/xlink" x="0px" y="0px" width="17px"
	 viewBox="0 0 200 190" style="enable-background:new 0 0 200 190;" xml:space="preserve">
<style type="text/css">
	.st0{fill:#FFFFFF;}
</style>
<path id="Published_Articles_Icon" class="st0" d="m 95.215691,189.20166 c -0.54983,-0.13057 -1.63089,-0.22843 -2.40243,-0.22843 -2.90624,-0.0287 -6.68862,-2.72963 -8.21628,-5.86277 -1.49867,-3.07567 -3.58319,-13.73252 -6.235401,-31.87984 -1.82518,-12.48755 -2.03676,-14.62878 -2.1876,-22.11918 -0.12733,-6.31367 -0.10121,-6.89124 0.39508,-8.86991 0.76304,-3.04303 1.86696,-5.07785 3.79087,-6.98924 2.030221,-2.01781 3.816051,-3.08547 6.934161,-4.15049 6.99792,-2.39007 19.178319,-2.40967 26.161159,-0.0324 4.09639,1.38769 7.67758,4.21688 9.32321,7.36373 1.59859,3.05614 1.89146,4.77874 1.86338,10.94747 -0.0302,6.55301 -0.44078,11.09375 -1.95513,21.6125 -2.83212,19.67266 -5.0555,31.1347 -6.65839,34.324 -1.58715,3.15731 -4.74391,5.32109 -8.31962,5.70117 -2.9859,0.32666 -11.349119,0.45053 -12.492809,0.19609 z M 67.98133,156.49903 C 62.64105,154.22656 59.33788,152.45694 54.53059,149.29469 36.6145,137.5085 23.78284,118.63771 19.65518,98.005702 c -1.07519,-5.374 -1.41868,-15.06605 -0.92532,-26.110125 0.40062,-8.96718 2.6594,-17.22128 7.38526,-26.984438 7.29057,-15.062145 18.7825,-27.29636 33.62096,-35.7920543 7.5483,-4.3219552 17.80603,-7.9824194 25.688491,-9.16699254 5.56678,-0.83585897 22.166779,-0.91094716 28.655289,-0.13059744 2.79882,0.33640096 9.43876,1.97862148 13.05476,3.22586648 15.50379,5.3458957 29.0803,15.2426218 38.91537,28.3679478 9.0757,12.111746 14.79802,27.058863 15.40108,40.228844 0.44699,9.765513 0.13715,20.966032 -0.69874,25.360496 -3.5456,18.610221 -13.95341,35.886991 -28.82382,47.847311 -5.32882,4.28607 -13.94084,9.43827 -19.58989,11.71994 -2.18661,0.88161 -3.79879,0.87829 -4.49865,-0.011 -0.6566,-0.83584 -0.64909,-1.36478 0.0849,-6.08804 0.3314,-2.12885 0.74117,-4.99067 0.91062,-6.35714 0.24815,-2.00476 0.41564,-2.58262 0.86362,-2.99734 0.30689,-0.29394 2.03805,-1.35166 3.85032,-2.37696 5.47527,-3.09527 11.40369,-7.85441 15.88982,-12.75305 9.87771,-10.7858 16.09082,-24.50594 17.62472,-38.919923 0.43262,-4.065963 0.17628,-12.557412 -0.49956,-16.548282 -2.42269,-14.302715 -8.80093,-26.761901 -18.87507,-36.871172 -3.89588,-3.909228 -6.41861,-6.005434 -10.49909,-8.722978 -9.59063,-6.387138 -19.80917,-10.02736 -31.30627,-11.152179 -3.63223,-0.355818 -11.509629,-0.130598 -14.890339,0.395049 -7.56882,1.211352 -13.461661,3.085535 -20.139601,6.411006 -18.90786,9.411519 -32.63558,27.237188 -36.72815,47.692565 -0.97298,4.863931 -1.25084,7.677413 -1.25084,12.677888 0,14.187025 4.64309,27.862136 13.5105,39.792016 3.01333,4.05395 9.30466,10.36497 13.34907,13.39075 3.1965,2.39325 6.37642,4.42932 9.2867,5.9512 0.98507,0.51589 1.95643,1.12323 2.15854,1.35505 0.23181,0.26115 0.66673,2.44549 1.17836,5.91399 1.26653,8.58356 1.27468,9.29723 0.11427,9.82653 -1.06604,0.48656 -2.13209,0.32673 -4.49166,-0.67911 z M 65.21908,123.32958 C 61.21863,120.07757 56.59438,114.76753 53.60926,109.99859 43.85463,94.414733 42.71933,73.705427 50.71216,57.154123 58.80358,40.398774 73.62572,29.344231 91.967451,26.385064 c 3.84471,-0.620307 12.842519,-0.613822 16.865279,0.01105 25.14845,3.906354 43.90859,23.832724 46.24873,49.123585 0.38528,4.162641 0.14366,10.751905 -0.53907,14.741453 -2.2,12.846128 -8.79606,24.453768 -18.54627,32.637938 -2.14123,1.7991 -2.22809,1.84154 -3.56047,1.84154 -1.77424,0 -2.23886,-0.45053 -2.48274,-2.3998 -0.26122,-2.08965 -1.26849,-5.42197 -2.27119,-7.51162 -0.5998,-1.25056 -0.85937,-2.14513 -0.85937,-2.95489 0,-1.11991 0.0849,-1.25381 2.25584,-3.57984 3.11715,-3.33984 5.21719,-6.34632 7.09898,-10.162848 2.87326,-5.827182 4.13738,-11.132579 4.13738,-17.364971 0,-8.06796 -2.63392,-16.204528 -7.4398,-22.982434 -2.14254,-3.020254 -6.50928,-7.392759 -9.55477,-9.564053 -2.69434,-1.91987 -7.90418,-4.573747 -10.86442,-5.531398 C 102.33463,39.413634 92.704531,40.102839 83.222361,44.781739 71.89227,50.371867 63.72653,60.87198 61.09737,73.231244 c -0.65824,3.095266 -0.90998,9.102984 -0.50773,12.116975 1.16889,8.754295 4.86835,16.382491 11.25392,23.206151 2.64535,2.82756 2.69106,3.07243 1.18064,6.36887 -1.08792,2.37364 -1.93031,5.16922 -2.28065,7.56939 -0.27426,1.87411 -0.66346,2.24962 -2.34464,2.24962 -1.38439,0 -1.51728,-0.0648 -3.17986,-1.41046 z m 31.245901,-21.73984 c -5.06134,-0.80976 -9.37646,-2.93853 -13.08578,-6.456327 C 79.6184,91.566614 77.15017,86.940401 76.34501,81.949431 c -0.44177,-2.739429 -0.19918,-9.082792 0.43457,-11.303089 2.35641,-8.271048 8.235881,-14.255259 16.491771,-16.786004 2.04524,-0.626938 2.51606,-0.672625 6.941469,-0.685667 5.08646,-0.014 6.09827,0.163366 9.61948,1.534554 6.92237,2.723071 12.18906,8.758201 14.15595,16.217943 0.57072,2.164735 0.65038,2.954889 0.65038,6.464212 0,3.471741 -0.0817,4.310533 -0.62755,6.37439 -1.88034,7.121734 -6.46578,12.681502 -12.96858,15.724526 -3.42813,1.603154 -5.50305,2.050514 -9.95513,2.138644 -2.130129,0.0324 -4.210079,0.0251 -4.622359,-0.0324 z"/>
</svg>
