<?xml version="1.0" encoding="utf-8"?>
<!-- Generator: Adobe Illustrator 21.0.0, SVG Export Plug-In . SVG Version: 6.00 Build 0)  -->
<svg version="1.1" id="Layer_1" xmlns="http://www.w3.org/2000/svg" xmlns:xlink="http://www.w3.org/1999/xlink" x="0px" y="0px" width="17px"
	 viewBox="0 0 200 190" style="enable-background:new 0 0 200 190;" xml:space="preserve">
<style type="text/css">
	.st0{fill:#FFFFFF;}
</style>
<path id="Published_Articles_Icon" class="st0" d="M138.5,157.7H80.8v-14.5h57.7V157.7z M170.7,130.3H80.8v-14.5h89.9L170.7,130.3
	L170.7,130.3z M170.7,102.9H80.8V88.5h89.9L170.7,102.9L170.7,102.9z M170.7,75.6H80.8V61.1h89.9L170.7,75.6L170.7,75.6z
	 M170.7,103.1H80.9V88.6h89.9L170.7,103.1L170.7,103.1z M170.7,75.6H80.9V61.1h89.9L170.7,75.6L170.7,75.6z M170.7,48.3H80.9V33.8
	h89.9L170.7,48.3L170.7,48.3z M39.5,44.4c0,5.4-4.3,9.8-9.7,9.8H9.5C4.1,54.1-0.2,49.5,0,44.1c0.2-5.2,4.3-9.4,9.5-9.5h20.3
	C35.3,34.6,39.6,39,39.5,44.4 M39.5,145.6c0,5.4-4.3,9.8-9.7,9.8H9.5c-5.4-0.2-9.7-4.7-9.5-10.2c0.2-5.2,4.3-9.4,9.5-9.5h20.3
	C35.3,135.8,39.6,140.2,39.5,145.6 M168.8,17.8c8.2,0.2,14.7,7,14.5,15.2v124.1c0.2,8.2-6.3,15-14.5,15.2H67.3V17.9L168.8,17.8
	L168.8,17.8z M19.2,28.2h10.6c8.9,0.2,16,7.7,15.8,16.6c-0.2,8.6-7.1,15.5-15.8,15.8h-11v68.9h11c8.9,0.2,16,7.7,15.8,16.6
	c-0.2,8.6-7.1,15.5-15.8,15.8H19.2c1.9,15.9,15.2,27.9,31.1,28.2h118.4c17.8-0.4,31.8-15.1,31.4-32.9v-124
	c0.4-17.7-13.7-32.5-31.4-32.9H50.3C34.4,0.5,21.2,12.5,19.2,28.2"/>
</svg>
