<?xml version="1.0" encoding="utf-8"?>
<!-- Generator: Adobe Illustrator 21.1.0, SVG Export Plug-In . SVG Version: 6.00 Build 0)  -->
<svg version="1.1" id="Layer_1" xmlns="http://www.w3.org/2000/svg" xmlns:xlink="http://www.w3.org/1999/xlink" x="0px" y="0px"
	 viewBox="0 0 60 60" style="enable-background:new 0 0 60 60;" xml:space="preserve">
<style type="text/css">
	.st0{fill:#C9C3BA;}
</style>
<g>
	<path class="st0" d="M58.7,5h-50C8.2,5,7.8,5.4,7.8,5.9v44.6c0,1.5-1.2,2.7-2.8,2.7S2.2,52,2.2,50.5V12.1c0-0.5-0.4-0.9-0.9-0.9
		s-0.9,0.4-0.9,0.9v38.4C0.4,53,2.4,55,5,55h50c2.6,0,4.6-2,4.6-4.5V5.9C59.6,5.4,59.2,5,58.7,5z M57.8,50.5c0,1.5-1.2,2.7-2.8,2.7
		H8.7c0.6-0.7,0.9-1.7,0.9-2.7V6.8h48.2V50.5z"/>
	<path class="st0" d="M5,51.4c0.5,0,0.9-0.4,0.9-0.9V9.5C5.9,9,5.5,8.6,5,8.6S4.1,9,4.1,9.5v41.1C4.1,51,4.5,51.4,5,51.4z"/>
	<path class="st0" d="M14.3,38.9h14.8c0.5,0,0.9-0.4,0.9-0.9V22c0-0.5-0.4-0.9-0.9-0.9H14.3c-0.5,0-0.9,0.4-0.9,0.9V38
		C13.3,38.5,13.7,38.9,14.3,38.9z M15.2,22.9h13v14.3h-13V22.9z"/>
	<path class="st0" d="M14.3,12.1h38.9c0.5,0,0.9-0.4,0.9-0.9s-0.4-0.9-0.9-0.9H14.3c-0.5,0-0.9,0.4-0.9,0.9S13.7,12.1,14.3,12.1z"/>
	<path class="st0" d="M14.3,17.5h38.9c0.5,0,0.9-0.4,0.9-0.9c0-0.5-0.4-0.9-0.9-0.9H14.3c-0.5,0-0.9,0.4-0.9,0.9
		C13.3,17.1,13.7,17.5,14.3,17.5z"/>
	<path class="st0" d="M14.3,44.3h38.9c0.5,0,0.9-0.4,0.9-0.9s-0.4-0.9-0.9-0.9H14.3c-0.5,0-0.9,0.4-0.9,0.9S13.7,44.3,14.3,44.3z"/>
	<path class="st0" d="M53.1,21.1H34.6c-0.5,0-0.9,0.4-0.9,0.9c0,0.5,0.4,0.9,0.9,0.9h18.5c0.5,0,0.9-0.4,0.9-0.9
		C54.1,21.5,53.7,21.1,53.1,21.1z"/>
	<path class="st0" d="M53.1,26.4H34.6c-0.5,0-0.9,0.4-0.9,0.9c0,0.5,0.4,0.9,0.9,0.9h18.5c0.5,0,0.9-0.4,0.9-0.9
		C54.1,26.8,53.7,26.4,53.1,26.4z"/>
	<path class="st0" d="M53.1,31.8H34.6c-0.5,0-0.9,0.4-0.9,0.9c0,0.5,0.4,0.9,0.9,0.9h18.5c0.5,0,0.9-0.4,0.9-0.9
		C54.1,32.2,53.7,31.8,53.1,31.8z"/>
	<path class="st0" d="M53.1,37.1H34.6c-0.5,0-0.9,0.4-0.9,0.9s0.4,0.9,0.9,0.9h18.5c0.5,0,0.9-0.4,0.9-0.9S53.7,37.1,53.1,37.1z"/>
	<path class="st0" d="M53.1,47.9H34.6c-0.5,0-0.9,0.4-0.9,0.9c0,0.5,0.4,0.9,0.9,0.9h18.5c0.5,0,0.9-0.4,0.9-0.9
		C54.1,48.3,53.7,47.9,53.1,47.9z"/>
</g>
</svg>
