<?xml version="1.0" encoding="utf-8"?>
<!-- Generator: Adobe Illustrator 21.1.0, SVG Export Plug-In . SVG Version: 6.00 Build 0)  -->
<svg version="1.1" id="Layer_1" xmlns="http://www.w3.org/2000/svg" xmlns:xlink="http://www.w3.org/1999/xlink" x="0px" y="0px"
	 viewBox="0 0 60 60" style="enable-background:new 0 0 60 60;" xml:space="preserve">
<style type="text/css">
	.st0{fill:#C9C3BA;}
</style>
<g>
	<path class="st0" d="M59.3,30c0,16.1-13.1,29.3-29.3,29.3C13.8,59.3,0.7,46.1,0.7,30C0.7,13.8,13.8,0.7,30,0.7
		C46.2,0.7,59.3,13.8,59.3,30z M55.1,30C55.1,16.2,43.8,4.9,30,4.9C16.2,4.9,4.9,16.2,4.9,30c0,5.6,1.8,10.7,4.9,14.9
		c1.2-5.9,4-10.7,10-10.7c2.7,2.6,6.2,4.2,10.2,4.2s7.6-1.6,10.2-4.2c6,0,8.8,4.8,10,10.7C53.3,40.7,55.1,35.6,55.1,30z M30,11.2
		c-6.9,0-12.6,5.6-12.6,12.6c0,6.9,5.6,12.6,12.6,12.6c6.9,0,12.6-5.6,12.6-12.6C42.6,16.8,36.9,11.2,30,11.2z"/>
</g>
</svg>
