<?xml version="1.0" encoding="utf-8"?>
<!-- Generator: Adobe Illustrator 21.0.0, SVG Export Plug-In . SVG Version: 6.00 Build 0)  -->
<svg version="1.1" id="Layer_1" xmlns="http://www.w3.org/2000/svg" xmlns:xlink="http://www.w3.org/1999/xlink" x="0px" y="0px"
	 viewBox="0 0 200 215" style="enable-background:new 0 0 200 215;" xml:space="preserve">
<style type="text/css">
	.st0{fill:#9D938B;}
</style>
<g>
	<path id="Posters_Icon" class="st0" d="M4.7,215h190.6c2.5,0.1,4.6-1.9,4.7-4.5V60.1c-0.1-2.6-2.2-4.6-4.7-4.5H4.7
		c-2.5-0.1-4.6,1.9-4.7,4.5v150.4C0.1,213.1,2.2,215.1,4.7,215z M179.1,80v110.8c-0.1,2.6-2.2,4.5-4.7,4.5H25.6
		c-2.5,0.1-4.6-1.9-4.7-4.5V80c0.1-2.6,2.2-4.6,4.7-4.5h148.8C176.9,75.5,179,77.5,179.1,80L179.1,80z M32.7,54.2h-7.4L95.8,7.4h7.4
		L32.7,54.2z M95.8,7.4h7.4l70.4,46.8h-7.4L95.8,7.4z M154.4,117.2H81.9c-1.7-2.4-1.3-5.8,0.9-7.7c2-1.7,4.7-2.4,7.3-1.9
		c-2.2-2.1-2.8-5.5-1.4-8.3c1.7-2.5,4.4-4,7.4-4.2c1.8-0.3,3.6,0,5.2,0.8c-0.5-3.6,1.5-7,4.8-8.3c4.9-2.3,10.6-2,15.2,0.9
		c3.4,2.2,5.3,6.2,4.7,10.2c2-0.5,4.2-0.2,5.9,1c1.6,1.3,2.3,3.4,1.8,5.5c1.8-1.3,4.1-1.7,6.2-1.2c2.9,0,5.4,2.1,5.8,5.1
		c2.2-1,4.7-0.9,6.9,0.2C154.6,111.4,155.3,114.4,154.4,117.2L154.4,117.2z M169.1,185.3L31.3,185l56.9-45l41.6,31.7l-15.1-22.6
		l25.3-23.9l29,13.6L169.1,185.3z M63.8,113.9c0.5,7-4.7,13-11.6,13.5c-6.9,0.5-12.8-4.8-13.3-11.8c-0.5-7,4.7-13,11.6-13.5
		c0.3,0,0.6,0,0.8,0C58,101.9,63.5,107.1,63.8,113.9L63.8,113.9z M105.6,7.2c0,3.5-2.9,6.4-6.4,6.4c-3.5,0-6.4-2.9-6.4-6.4
		s2.9-6.4,6.4-6.4C102.7,0.8,105.6,3.6,105.6,7.2z"/>
</g>
</svg>
