<?xml version="1.0" encoding="utf-8"?>
<!-- Generator: Adobe Illustrator 21.0.0, SVG Export Plug-In . SVG Version: 6.00 Build 0)  -->
<svg version="1.1" id="Layer_1" xmlns="http://www.w3.org/2000/svg" xmlns:xlink="http://www.w3.org/1999/xlink" x="0px" y="0px"
	 viewBox="0 0 200 200" style="enable-background:new 0 0 200 200;" xml:space="preserve">
<style type="text/css">
	.st0{fill:#9D938B;}
</style>
<g>
	<path class="st0" d="M171.9,128.7H28.1c-4.6,0-6,4.5-8.5,8.4L0.8,188.8c-2.4,3.9,1,11.2,5.6,11.2h187c4.6,0,8.1-7.3,5.6-11.2
		l-18.8-51.7C177.9,133.1,176.5,128.7,171.9,128.7L171.9,128.7L171.9,128.7z M176.9,187H168c-3.2,0-6.1-1.8-6.7-4.1l-1.4-6.1
		c-0.5-2.1,1.5-3.8,4.5-3.8h8.4c3,0,5.9,1.7,6.6,3.8l1.9,6.1C182,185.1,180,187,176.9,187z M171,166.7h-8.2c-2.9,0-5.6-1.6-6.1-3.5
		l-1.2-5.2c-0.4-1.8,1.5-3.2,4.2-3.2h7.8c2.8,0,5.4,1.4,6,3.2l1.6,5.2C175.7,165.1,173.9,166.7,171,166.7z M165.9,149.4h-7.6
		c-2.7,0-5.2-1.3-5.6-3l-1.1-4.5c-0.4-1.5,1.4-2.8,4-2.8h7.3c2.6,0,5,1.2,5.5,2.8l1.4,4.5C170.4,148,168.6,149.4,165.9,149.4z
		 M144.7,166.7h-8.2c-2.9,0-5.5-1.6-5.7-3.5l-0.7-5.2c-0.2-1.8,1.8-3.2,4.6-3.2h7.8c2.8,0,5.3,1.4,5.7,3.2l1.1,5.2
		C149.7,165.1,147.6,166.7,144.7,166.7z M141.6,149.4H134c-2.7,0-5-1.3-5.3-3l-0.6-4.5c-0.2-1.5,1.7-2.8,4.3-2.8h7.3
		c2.6,0,4.9,1.2,5.2,2.8l0.9,4.5C146.2,148,144.3,149.4,141.6,149.4L141.6,149.4z M120,187h-8.9c-3.2,0-5.7-1.8-5.8-4.1l-0.1-6.1
		c0-2.1,2.4-3.8,5.3-3.8h8.4c3,0,5.6,1.7,5.8,3.8l0.6,6.1C125.5,185.1,123.1,187,120,187L120,187z M118.5,166.7h-8.2
		c-2.9,0-5.3-1.6-5.3-3.5l-0.1-5.2c0-1.8,2.2-3.2,4.9-3.2h7.8c2.8,0,5.1,1.4,5.3,3.2l0.5,5.2C123.6,165.1,121.4,166.7,118.5,166.7z
		 M117.2,149.4h-7.6c-2.7,0-4.9-1.3-4.9-3l-0.1-4.5c0-1.5,2-2.8,4.6-2.8h7.3c2.6,0,4.8,1.2,4.9,2.8l0.4,4.5
		C122,148,119.9,149.4,117.2,149.4L117.2,149.4z M92.9,149.4h-7.6c-2.7,0-4.8-1.3-4.6-3l0.4-4.5c0.1-1.5,2.3-2.8,4.9-2.8h7.3
		c2.6,0,4.6,1.2,4.6,2.8l-0.1,4.5C97.8,148,95.6,149.4,92.9,149.4L92.9,149.4z M84.9,154.8h7.8c2.8,0,5,1.4,5,3.2l-0.1,5.2
		c0,1.9-2.4,3.5-5.3,3.5h-8.2c-2.9,0-5.1-1.6-4.9-3.5l0.5-5.2C79.8,156.3,82.1,154.8,84.9,154.8L84.9,154.8z M83.6,173.1H92
		c3,0,5.4,1.7,5.3,3.8l-0.1,6.1c0,2.2-2.6,4.1-5.8,4.1h-8.9c-3.2,0-5.5-1.8-5.3-4.1l0.6-6.1C78,174.7,80.6,173.1,83.6,173.1z
		 M68.4,149.4h-7.6c-2.7,0-4.6-1.3-4.3-3l0.9-4.5c0.3-1.5,2.7-2.8,5.2-2.8H70c2.6,0,4.5,1.2,4.3,2.8l-0.6,4.5
		C73.5,148,71.1,149.4,68.4,149.4z M59.8,154.8h7.8c2.8,0,4.8,1.4,4.6,3.2l-0.7,5.2c-0.2,1.9-2.8,3.5-5.7,3.5h-8.2
		c-2.9,0-4.9-1.6-4.6-3.5l1.1-5.2C54.5,156.3,57.1,154.8,59.8,154.8L59.8,154.8z M44.1,149.4h-7.6c-2.7,0-4.5-1.3-3.9-3l1.4-4.5
		c0.5-1.5,3-2.8,5.5-2.8h7.3c2.6,0,4.4,1.2,4,2.8l-1.1,4.5C49.3,148,46.8,149.4,44.1,149.4L44.1,149.4z M34.9,154.8h7.8
		c2.8,0,4.7,1.4,4.2,3.2l-1.2,5.2c-0.4,1.9-3.2,3.5-6.1,3.5h-8.2c-2.9,0-4.8-1.6-4.2-3.5l1.6-5.2C29.5,156.3,32.1,154.8,34.9,154.8z
		 M29.6,173.1H38c3,0,5,1.7,4.5,3.8l-1.4,6.1c-0.5,2.2-3.5,4.1-6.7,4.1h-8.9c-3.2,0-5.1-1.8-4.4-4.1l1.9-6.1
		C23.7,174.7,26.6,173.1,29.6,173.1L29.6,173.1z M56.5,173.1h8.4c3,0,5.2,1.7,4.9,3.8l-0.8,6.1c-0.3,2.2-3.1,4.1-6.2,4.1H54
		c-3.2,0-5.3-1.8-4.9-4.1l1.2-6.1C50.8,174.7,53.5,173.1,56.5,173.1L56.5,173.1z M137.5,173.1h8.4c3,0,5.7,1.7,6.2,3.8l1.2,6.1
		c0.5,2.2-1.7,4.1-4.9,4.1h-8.9c-3.2,0-5.9-1.8-6.2-4.1l-0.8-6.1C132.3,174.7,134.5,173.1,137.5,173.1L137.5,173.1z"/>
	<g>
		<path class="st0" d="M139.7,105.9H60.3c0,0-0.1-7.3,4.3-11.8c4.2-4.3,20.4-10.3,23.1-10.5s4.6,10.2,12.3,10.2s10-9.2,12-10.1
			s18.2,5.4,23.2,10.1C140.3,98.6,139.7,105.9,139.7,105.9z"/>
		<path class="st0" d="M100,29.7c10.2,0,19,6.9,19,21.2s-8.8,28.5-19,28.5S81,65.1,81,50.9S89.8,29.7,100,29.7
			C100,29.7,100,29.7,100,29.7z"/>
		<path class="st0" d="M159.8,0H40.2l-0.5,0l0,0l-0.5,0l0,0l-0.5,0h0l-0.5,0h0l-0.5,0c-8.6,0.9-14.7,6.7-16,15l0,0l-0.1,0.5l0,0
			l-0.1,0.5l0,0l0,0.5l0,0l0,0.5c0,0.3,0,0.7,0,1l0,0v0.5l0,0v83.8c0,0.5,0,1,0,1.5l0,0.5l0,0l0,0.5l0,0l0.1,0.5l0,0l0.1,0.5l0,0
			c1.3,8.3,7.4,14.1,16,15l0.5,0h0l0.5,0h0l0.5,0l0,0l0.5,0l0,0h0.5h55.1c3.3,0.2,6.6,0.2,9.8,0h54.7h0.5l0,0l0.5,0l0,0
			c0.2,0,0.3,0,0.5,0l0,0l0.5,0l0,0l0.5,0c9.3-1,15.6-7.6,16.2-17c0-0.3,0-0.7,0-1V18.6v-0.5l0-1c-0.6-9.4-6.9-16-16.2-17l-0.5,0
			l0,0l-0.5,0l0,0c-0.2,0-0.3,0-0.5,0l0,0l-0.5,0l0,0L159.8,0L159.8,0L159.8,0z M150.7,105.9H49.3c-6.6,0-12-5.4-12-12V27.4
			c0-6.6,5.4-12,12-12h101.4c6.6,0,12,5.4,12,12v66.6C162.7,100.5,157.3,105.9,150.7,105.9z"/>
	</g>
</g>
</svg>
