<?xml version="1.0" encoding="utf-8"?>
<!-- Generator: Adobe Illustrator 21.0.0, SVG Export Plug-In . SVG Version: 6.00 Build 0)  -->
<svg version="1.1" id="Layer_1" xmlns="http://www.w3.org/2000/svg" xmlns:xlink="http://www.w3.org/1999/xlink" x="0px" y="0px"
	 viewBox="0 0 200 285" style="enable-background:new 0 0 200 285;" xml:space="preserve">
<style type="text/css">
	.st0{fill:#9D938B;}
</style>
<path id="White_Papers_Icon" class="st0" d="M121.4,66.6V0H14.3C6.2,0.2-0.1,6.8,0,14.8v254.9c-0.1,8,6.2,14.7,14.3,14.8h171.3
	c8-0.2,14.4-6.8,14.3-14.8V81.4h-64.2C127.6,81.3,121.2,74.7,121.4,66.6z M21.4,22.2h78.5v66.6H21.4V22.2z M21.4,151.2h107.1v14.8
	H21.4V151.2z M21.4,210.5h107.1v14.8H21.4V210.5z M178.5,254.9h-157v-14.8h157V254.9z M178.5,195.7h-157v-14.8h157V195.7z
	 M178.5,136.4h-157v-14.8h157V136.4z M149.9,66.6h50L135.6,0v51.8C135.5,59.8,141.9,66.5,149.9,66.6z"/>
</svg>
